<?xml version="1.0" encoding="utf-8"?>
<!-- Generator: Adobe Illustrator 17.0.0, SVG Export Plug-In . SVG Version: 6.00 Build 0)  -->
<!DOCTYPE svg PUBLIC "-//W3C//DTD SVG 1.1//EN" "http://www.w3.org/Graphics/SVG/1.1/DTD/svg11.dtd">
<svg version="1.1" id="Layer_1" xmlns="http://www.w3.org/2000/svg" xmlns:xlink="http://www.w3.org/1999/xlink" x="0px" y="0px"
	 width="59.528px" height="59.528px" viewBox="3.036 2.13 59.528 59.528" enable-background="new 3.036 2.13 59.528 59.528"
	 xml:space="preserve">
<path fill="none" stroke="#FFFFFF" stroke-width="3" stroke-linecap="round" stroke-linejoin="round" stroke-miterlimit="10" d="
	M25.309,16.988c2.27-1.17,4.847-1.832,7.577-1.832c9.144,0,16.557,7.414,16.557,16.557c0,1.904-0.321,3.732-0.913,5.434"/>
<path fill="none" stroke="#FFFFFF" stroke-width="3" stroke-linecap="round" stroke-linejoin="round" stroke-miterlimit="10" d="
	M43.175,37.957c-9.995,0-18.096-8.102-18.096-18.096c0-4.801,1.883-9.152,4.935-12.392C17.929,8.893,8.549,19.154,8.549,31.621
	c0,13.439,10.895,24.338,24.337,24.338c13.44,0,24.337-10.898,24.337-24.338c0-0.115-0.017-0.225-0.018-0.34
	C53.887,35.354,48.836,37.957,43.175,37.957z"/>
</svg>
