<?xml version="1.0" encoding="utf-8"?>
<!-- Generator: Adobe Illustrator 17.0.0, SVG Export Plug-In . SVG Version: 6.00 Build 0)  -->
<!DOCTYPE svg PUBLIC "-//W3C//DTD SVG 1.1//EN" "http://www.w3.org/Graphics/SVG/1.1/DTD/svg11.dtd">
<svg version="1.1" id="Layer_1" xmlns="http://www.w3.org/2000/svg" xmlns:xlink="http://www.w3.org/1999/xlink" x="0px" y="0px"
	 width="59.528px" height="59.528px" viewBox="3.036 4.916 59.528 59.528" enable-background="new 3.036 4.916 59.528 59.528"
	 xml:space="preserve">
<path fill="none" stroke="#FFFFFF" stroke-width="3" stroke-linecap="round" stroke-linejoin="round" stroke-miterlimit="10" d="
	M52.165,22.693c4.656,1.044,8.135,5.204,8.135,10.175c0,5.759-4.67,10.428-10.428,10.428H16.157c-5.76,0-10.428-4.097-10.428-9.858
	c0-4.925,3.416-9.055,8.008-10.145c-0.283-0.841-0.437-1.742-0.437-2.679c0-4.635,3.758-8.394,8.395-8.394
	c2.302,0,4.386,0.925,5.903,2.424h0.001c2.043-4.502,6.578-7.633,11.845-7.633c7.179,0,13,5.821,13,13
	C52.442,20.931,52.165,22.694,52.165,22.693L52.165,22.693z"/>
<line fill="none" stroke="#FFFFFF" stroke-width="3" stroke-linecap="round" stroke-linejoin="round" stroke-miterlimit="10" x1="19.188" y1="49.729" x2="18.289" y2="56.094"/>
<line fill="none" stroke="#FFFFFF" stroke-width="3" stroke-linecap="round" stroke-linejoin="round" stroke-miterlimit="10" x1="28.512" y1="49.729" x2="26.714" y2="62.385"/>
<line fill="none" stroke="#FFFFFF" stroke-width="3" stroke-linecap="round" stroke-linejoin="round" stroke-miterlimit="10" x1="38.168" y1="49.729" x2="36.371" y2="62.385"/>
<line fill="none" stroke="#FFFFFF" stroke-width="3" stroke-linecap="round" stroke-linejoin="round" stroke-miterlimit="10" x1="47.492" y1="49.729" x2="46.594" y2="56.094"/>
</svg>
