<?xml version="1.0" encoding="utf-8"?>
<!-- Generator: Adobe Illustrator 17.0.0, SVG Export Plug-In . SVG Version: 6.00 Build 0)  -->
<!DOCTYPE svg PUBLIC "-//W3C//DTD SVG 1.1//EN" "http://www.w3.org/Graphics/SVG/1.1/DTD/svg11.dtd">
<svg version="1.1" id="Layer_1" xmlns="http://www.w3.org/2000/svg" xmlns:xlink="http://www.w3.org/1999/xlink" x="0px" y="0px"
	 width="59.528px" height="59.528px" viewBox="3.036 4.916 59.528 59.528" enable-background="new 3.036 4.916 59.528 59.528"
	 xml:space="preserve">
<path fill="#FDFDFD" d="M51.518,34.149H9.991c-3.228,0-5.955,2.716-5.955,6.268c0,3.614,2.667,6.411,5.945,6.411
	c3.276,0,5.941-2.992,5.941-6.581c0-0.978-0.734-1.807-1.641-1.807c-0.907,0-1.641,0.775-1.641,1.754
	c0,1.608-1.217,2.958-2.659,2.958c-1.444,0-2.664-1.418-2.664-3.05c0-1.631,1.224-3.05,2.673-3.05h41.528
	c0.907,0,1.641-0.473,1.641-1.451S52.425,34.149,51.518,34.149z"/>
<path fill="#FDFDFD" d="M59.886,40.921H26.271c-4.123,0-7.477,3.795-7.477,8.29s3.339,8.221,7.443,8.221
	c4.095,0,7.426-3.608,7.426-8.086c0-0.978-0.734-1.754-1.641-1.754s-1.641,0.802-1.641,1.78c0,2.523-1.86,4.581-4.145,4.581
	c-2.295,0-4.161-2.04-4.161-4.581c0-2.498,1.921-4.581,4.195-4.581h33.615c0.907,0,1.641-0.957,1.641-1.935
	C61.527,41.878,60.793,40.921,59.886,40.921z"/>
<path fill="#FDFDFD" d="M15.314,13.767c-1.992,0-3.859,0.816-5.259,2.298c-1.414,1.497-2.192,3.805-2.192,5.958
	c0,4.388,3.35,8.256,7.468,8.256h40.946c0.907,0,1.641-0.957,1.641-1.935s-0.734-1.935-1.641-1.935H15.331
	c-2.348,0-4.186-2.074-4.186-4.549s1.832-4.482,4.17-4.482c2.334,0,4.161,1.919,4.161,4.412c0,0.978,0.734,1.755,1.641,1.755
	s1.641-0.802,1.641-1.78C22.758,17.359,19.419,13.767,15.314,13.767z"/>
</svg>
