<?xml version="1.0" encoding="utf-8"?>
<!-- Generator: Adobe Illustrator 17.0.0, SVG Export Plug-In . SVG Version: 6.00 Build 0)  -->
<!DOCTYPE svg PUBLIC "-//W3C//DTD SVG 1.1//EN" "http://www.w3.org/Graphics/SVG/1.1/DTD/svg11.dtd">
<svg version="1.1" id="Layer_1" xmlns="http://www.w3.org/2000/svg" xmlns:xlink="http://www.w3.org/1999/xlink" x="0px" y="0px"
	 width="85.04px" height="85.04px" viewBox="0 0 85.04 85.04" enable-background="new 0 0 85.04 85.04" xml:space="preserve">
<g>
	<g>
		<path fill="#FFFFFF" d="M60.796,20.678c-0.053-1.742-1.122-3.312-2.725-3.999l-5.096-2.184c-0.26-0.551-0.592-1.143-1.014-1.735
			c-1.449-2.029-4.264-4.448-9.441-4.448c-0.001,0,0,0,0,0c0,0,0,0,0,0c-5.177,0-7.992,2.419-9.441,4.448
			c-0.449,0.628-0.795,1.257-1.062,1.836l-5.008,2.089c-1.626,0.678-2.712,2.255-2.765,4.016l-1.076,35.498
			c-0.014,0.45,0.255,0.86,0.673,1.027l4.765,1.906L27.739,75.6c-0.015,0.294,0.09,0.58,0.293,0.794
			c0.202,0.213,0.483,0.334,0.777,0.334h27.423c0.294,0,0.575-0.121,0.777-0.334c0.202-0.213,0.308-0.5,0.293-0.794l-0.867-16.468
			l4.765-1.906c0.418-0.167,0.686-0.578,0.673-1.027L60.796,20.678z M48.161,16.558v-4.559c2.13,1.433,3.026,3.514,3.376,4.676
			l-2.501,0.834c-0.317,0.106-0.566,0.353-0.675,0.669c-0.108,0.316-0.063,0.664,0.122,0.942l1.843,2.764l-5.825,7.035l2.941-8.182
			C47.919,19.391,48.161,17.985,48.161,16.558z M46.019,16.558c0,1.182-0.201,2.347-0.594,3.458L42.5,28.15l-2.884-8.13
			c-0.395-1.115-0.596-2.279-0.596-3.462v-1.533h6.999L46.019,16.558L46.019,16.558z M39.02,10.967
			c0.99-0.32,2.145-0.513,3.499-0.512c1.354,0,2.51,0.193,3.5,0.513v1.915H39.02L39.02,10.967L39.02,10.967z M36.878,11.999v4.56
			c0,1.427,0.242,2.833,0.719,4.178L40.529,29l-5.819-7.112l1.846-2.769c0.185-0.278,0.23-0.626,0.122-0.942
			c-0.108-0.316-0.358-0.563-0.675-0.669l-2.501-0.834C33.853,15.511,34.749,13.431,36.878,11.999z M28.724,56.873l-3.393-1.357
			l0.095-3.137l3.462,1.385L28.724,56.873z M38.021,39.189v35.397h-8.083l0.989-18.786L35,53.762
			c0.529-0.265,0.744-0.908,0.479-1.437c-0.265-0.529-0.908-0.744-1.437-0.479l-2.987,1.493l1.108-21.046
			c0.031-0.591-0.423-1.095-1.014-1.126c-0.592-0.035-1.095,0.423-1.126,1.013l-1.017,19.323l-3.512-1.405l0.889-29.332
			c0.028-0.923,0.597-1.748,1.448-2.104l3.339-1.393c-0.053,0.498,0.247,0.969,0.726,1.128l2.098,0.699l-1.507,2.261
			c-0.261,0.392-0.236,0.908,0.062,1.273l8.527,10.422l-1.497,1.808C38.574,36.076,38.021,37.612,38.021,39.189z M52.876,32.293
			l1.108,21.046l-2.987-1.493c-0.529-0.265-1.172-0.05-1.437,0.479c-0.265,0.529-0.05,1.173,0.479,1.437l4.074,2.037l0.989,18.786
			H40.163V39.188c0-1.078,0.379-2.13,1.067-2.961l11.255-13.592c0.302-0.365,0.329-0.884,0.066-1.277l-1.507-2.261l2.097-0.699
			c0.491-0.164,0.795-0.655,0.722-1.168c-0.001-0.004-0.002-0.014-0.004-0.026l3.368,1.443c0.839,0.36,1.4,1.182,1.427,2.095
			l0.89,29.356l-3.512,1.405L55.016,32.18c-0.031-0.591-0.534-1.049-1.126-1.013C53.299,31.198,52.845,31.702,52.876,32.293z
			 M56.316,56.873l-0.164-3.109l3.462-1.385l0.095,3.137L56.316,56.873z"/>
	</g>
</g>
<g>
	<g>
		<path fill="#FFFFFF" d="M43.674,41.449h-0.011c-0.592,0-1.066,0.479-1.066,1.071c0,0.592,0.485,1.071,1.077,1.071
			c0.592,0,1.071-0.479,1.071-1.071C44.745,41.928,44.265,41.449,43.674,41.449z"/>
	</g>
</g>
<g>
	<g>
		<path fill="#FFFFFF" d="M43.674,55.161h-0.011c-0.592,0-1.066,0.479-1.066,1.071s0.485,1.071,1.077,1.071
			c0.592,0,1.071-0.479,1.071-1.071S44.265,55.161,43.674,55.161z"/>
	</g>
</g>
<g>
	<g>
		<path fill="#FFFFFF" d="M43.674,48.305h-0.011c-0.592,0-1.066,0.479-1.066,1.071s0.485,1.071,1.077,1.071
			c0.592,0,1.071-0.479,1.071-1.071S44.265,48.305,43.674,48.305z"/>
	</g>
</g>
</svg>
