<?xml version="1.0" encoding="utf-8"?>
<!-- Generator: Adobe Illustrator 17.0.0, SVG Export Plug-In . SVG Version: 6.00 Build 0)  -->
<!DOCTYPE svg PUBLIC "-//W3C//DTD SVG 1.1//EN" "http://www.w3.org/Graphics/SVG/1.1/DTD/svg11.dtd">
<svg version="1.1" id="Layer_1" xmlns="http://www.w3.org/2000/svg" xmlns:xlink="http://www.w3.org/1999/xlink" x="0px" y="0px"
	 width="85.04px" height="85.04px" viewBox="0 0 85.04 85.04" enable-background="new 0 0 85.04 85.04" xml:space="preserve">
<g>
	<g>
		<path fill="#FFFFFF" d="M43.352,73.112H30.811c-1.164,0-2.553-0.577-2.553-3.327l0.557-32.769c0.01-0.552,0.489-0.98,1.017-0.983
			c0.552,0.01,0.992,0.465,0.983,1.017l-0.557,32.752c0,1.31,0.281,1.31,0.553,1.31h12.541c0.552,0,1,0.448,1,1
			S43.905,73.112,43.352,73.112z"/>
	</g>
	<g>
		<path fill="#FFFFFF" d="M21.075,69.737c-0.231,0-0.477-0.029-0.738-0.087l-6.394-0.931c-0.686-0.149-1.539-0.436-1.841-1.347
			c-0.191-0.574-0.085-1.164,0.086-1.935l8.186-36.41c1.925-4.661,11.057-6.398,11.766-6.401c0.001,0,0.002,0,0.004,0
			c0.55,0,0.998,0.445,1,0.996c0.002,0.552-0.444,1.001-0.996,1.004c-1.112,0.084-8.471,1.887-9.894,5.092L14.14,65.872
			c-0.041,0.186-0.129,0.586-0.139,0.794c0.058,0.023,0.153,0.054,0.302,0.087l6.395,0.931c0.476,0.104,0.646,0.141,0.883-0.923
			l7.263-29.964c0.13-0.537,0.675-0.868,1.207-0.736c0.537,0.13,0.867,0.67,0.736,1.207l-7.259,29.946
			C23.156,68.888,22.331,69.737,21.075,69.737z"/>
	</g>
	<g>
		<path fill="#FFFFFF" d="M55.892,73.112h-12.54c-0.552,0-1-0.448-1-1s0.448-1,1-1h12.54c0.272,0,0.553,0,0.553-1.327L55.889,37.05
			c-0.009-0.552,0.431-1.008,0.983-1.017c0.549-0.036,1.008,0.431,1.017,0.983l0.556,32.752
			C58.445,72.535,57.057,73.112,55.892,73.112z"/>
	</g>
	<g>
		<path fill="#FFFFFF" d="M65.605,69.745c-1.224,0-2.055-0.852-2.433-2.549l-7.254-29.928c-0.13-0.537,0.199-1.077,0.736-1.207
			c0.534-0.135,1.077,0.199,1.207,0.736l7.259,29.946c0.241,1.082,0.41,1.045,0.816,0.954l6.537-0.957
			c0.107-0.025,0.183-0.052,0.232-0.073c-0.009-0.207-0.099-0.609-0.14-0.797l-8.114-36.152c-1.422-3.205-8.781-5.008-9.923-5.093
			c-0.537-0.04-0.966-0.499-0.945-1.037c0.021-0.539,0.435-0.945,0.983-0.962c0.709,0.003,9.84,1.74,11.765,6.401l0.051,0.163
			l8.135,36.244c0.172,0.773,0.278,1.363,0.087,1.939c-0.303,0.911-1.155,1.197-1.771,1.333l-6.536,0.957
			C66.054,69.718,65.823,69.745,65.605,69.745z"/>
	</g>
	<g>
		<path fill="#FFFFFF" d="M50.822,54.619c0,7.619,2.945,12.359,2.945,12.359H33.361c0,0,2.945-4.74,2.945-12.359L50.822,54.619
			 M50.822,53.619H36.306c-0.552,0-1,0.448-1,1c0,7.211-2.768,11.788-2.796,11.833c-0.19,0.309-0.199,0.697-0.022,1.013
			c0.177,0.316,0.51,0.513,0.873,0.513h20.406c0.363,0,0.698-0.197,0.874-0.514s0.167-0.705-0.024-1.014
			c-0.027-0.044-2.795-4.621-2.795-11.831C51.822,54.067,51.374,53.619,50.822,53.619L50.822,53.619z"/>
	</g>
	<g>
		<path fill="#FFFFFF" d="M36.306,22.167"/>
	</g>
	<g>
		<path fill="#FFFFFF" d="M41.018,34.82c-0.276,0-0.5-0.224-0.5-0.5c0-0.285,0.036-0.587,0.076-0.907
			c0.141-1.125,0.286-2.288-1.239-3.718c-0.776-0.729-1.15-1.512-1.111-2.33c0.06-1.259,1.103-2.081,1.147-2.116
			c0.217-0.169,0.533-0.129,0.701,0.089c0.169,0.218,0.13,0.53-0.087,0.7l0,0c-0.007,0.005-0.729,0.585-0.763,1.38
			c-0.022,0.51,0.246,1.03,0.797,1.547c1.895,1.778,1.694,3.393,1.546,4.571c-0.034,0.276-0.068,0.537-0.068,0.783
			C41.518,34.597,41.295,34.82,41.018,34.82z"/>
	</g>
	<g>
		<path fill="#FFFFFF" d="M48.263,34.488c-0.029,0-0.058-0.002-0.087-0.007c-0.055-0.01-1.362-0.25-2.002-1.336
			c-0.416-0.705-0.451-1.573-0.104-2.579c0.829-2.41-0.396-4.216-0.795-4.379c-0.273-0.043-0.444-0.296-0.401-0.569
			s0.311-0.458,0.586-0.412c0.548,0.087,1.008,0.764,1.18,1.051c0.294,0.489,1.189,2.269,0.375,4.634
			c-0.247,0.717-0.24,1.305,0.02,1.746c0.402,0.682,1.304,0.857,1.313,0.859c0.272,0.048,0.454,0.307,0.406,0.579
			C48.712,34.317,48.501,34.488,48.263,34.488z"/>
	</g>
	<g>
		<path fill="#FFFFFF" d="M54.561,24.627c-0.552,0-1-0.448-1-1s0.448-1,1-1c0.131,0,0.365-0.016,0.458-0.121
			c0.082-0.092,0.131-0.304,0.131-0.565c0-2.935-5.404-10.714-11.896-10.714c-6.244,0-11.44,7.71-11.44,10.619
			c0,0.297,0.055,0.532,0.151,0.643c0.099,0.115,0.319,0.139,0.486,0.139c0.552,0,1,0.448,1,1s-0.448,1-1,1
			c-1.06,0-1.673-0.453-2.001-0.832c-0.422-0.49-0.636-1.145-0.636-1.949c0-4.155,6.221-12.619,13.44-12.619
			c7.464,0,13.896,8.527,13.896,12.714c0,0.78-0.213,1.416-0.634,1.891C56.195,24.194,55.595,24.627,54.561,24.627z"/>
	</g>
	<g>
		<path fill="#FFFFFF" d="M33.32,24.486c-0.168,0-0.332-0.084-0.426-0.238c-0.769-1.249-0.531-3.24,0.635-5.327
			c1.74-3.114,5.452-6.255,9.824-6.255c3.323,0,6.464,1.517,8.616,4.16c1.811,2.225,2.653,4.97,2.199,7.166
			c-0.057,0.27-0.325,0.441-0.591,0.388c-0.271-0.056-0.444-0.321-0.388-0.591c0.396-1.908-0.369-4.334-1.995-6.331
			c-1.961-2.41-4.819-3.792-7.841-3.792c-3.967,0-7.354,2.884-8.951,5.743c-0.972,1.74-1.224,3.393-0.656,4.314
			c0.145,0.235,0.071,0.544-0.164,0.688C33.499,24.462,33.409,24.486,33.32,24.486z"/>
	</g>
	<g>
		<path fill="#FFFFFF" d="M43.718,26.05c-7.465,0-12.353-1.931-12.424-1.96c-0.256-0.104-0.379-0.395-0.275-0.651
			c0.104-0.255,0.395-0.378,0.651-0.276c0.103,0.041,10.402,4.097,23.95,0.198c0.268-0.074,0.543,0.077,0.619,0.342
			s-0.077,0.542-0.342,0.619C51.413,25.612,47.273,26.05,43.718,26.05z"/>
	</g>
	<g>
		<g>
			<path fill="#FFFFFF" d="M43,47.125h-4.258V44.51c0-0.3,0.084-0.587,0.36-0.755l2.398-1.223v-1.655h-1.271v1.02h-1.487V40.35
				c0-0.528,0.432-0.96,0.947-0.96h2.351c0.527,0,0.959,0.432,0.959,0.96v2.495c0,0.3-0.084,0.588-0.372,0.756l-2.398,1.235v0.803
				H43V47.125z"/>
		</g>
		<g>
			<path fill="#FFFFFF" d="M47.68,47.125h-1.475v-1.139h-2.351v-1.224l1.895-5.373h1.931v5.109h0.6v1.487h-0.6V47.125z
				 M46.204,44.499V42.64l0.072-0.948h-0.048l-0.875,2.807C45.353,44.499,46.204,44.499,46.204,44.499z"/>
		</g>
	</g>
</g>
</svg>
