<?xml version="1.0" encoding="utf-8"?>
<!-- Generator: Adobe Illustrator 17.0.0, SVG Export Plug-In . SVG Version: 6.00 Build 0)  -->
<!DOCTYPE svg PUBLIC "-//W3C//DTD SVG 1.1//EN" "http://www.w3.org/Graphics/SVG/1.1/DTD/svg11.dtd">
<svg version="1.1" id="Layer_1" xmlns="http://www.w3.org/2000/svg" xmlns:xlink="http://www.w3.org/1999/xlink" x="0px" y="0px"
	 width="85.04px" height="85.04px" viewBox="0 0 85.04 85.04" enable-background="new 0 0 85.04 85.04" xml:space="preserve">
<g>
	<g>
		<path fill="#FCFCFC" d="M43.163,71.774H28.166c-1.247,0-2.732-0.624-2.732-3.598l1.565-39.362
			c0.021-0.552,0.486-0.984,1.038-0.959c0.552,0.022,0.981,0.487,0.959,1.038l-1.563,39.323c0.001,1.558,0.39,1.558,0.733,1.558
			h14.997c0.552,0,1,0.448,1,1C44.163,71.327,43.715,71.774,43.163,71.774z"/>
	</g>
	<g>
		<path fill="#FCFCFC" d="M18.285,65.005c-0.247,0-0.509-0.03-0.787-0.092l-7.143-1.041c-0.73-0.159-1.643-0.464-1.962-1.425
			c-0.204-0.614-0.088-1.257,0.099-2.099l9.081-40.456c0.012-0.055,0.029-0.11,0.051-0.162c2.043-4.949,11.449-6.912,12.888-7.063
			l5.051-0.859c0.207-0.034,0.422-0.004,0.611,0.089c0.037,0.018,3.667,1.792,6.989,1.792v2c-3.242,0-6.567-1.397-7.575-1.857
			l-4.769,0.811c-0.054,0.009-0.109,0.014-0.164,0.014c-1.256,0.087-9.539,2.095-11.151,5.762l-9.06,40.365
			c-0.054,0.246-0.18,0.81-0.157,1.008c0.024-0.002,0.15,0.053,0.428,0.114l7.144,1.041c0.577,0.125,0.827,0.18,1.116-1.119
			l8.107-33.443l1.943,0.471L20.922,62.28C20.522,64.088,19.636,65.005,18.285,65.005z"/>
	</g>
	<g>
		<path fill="#FCFCFC" d="M43.163,70.774"/>
	</g>
	<g>
		<path fill="#FCFCFC" d="M43.163,70.774"/>
	</g>
	<g>
		<path fill="#FCFCFC" d="M58.16,71.774H43.163c-0.552,0-1-0.448-1-1s0.448-1,1-1H58.16c0.343,0,0.732,0,0.732-1.598L57.33,28.893
			c-0.022-0.552,0.407-1.017,0.959-1.038c0.555-0.026,1.017,0.407,1.039,0.959l1.563,39.323
			C60.892,71.15,59.407,71.774,58.16,71.774z"/>
	</g>
	<g>
		<path fill="#FCFCFC" d="M68.015,65.014c-1.317,0-2.21-0.92-2.616-2.753l-8.098-33.405l1.943-0.471l8.103,33.424
			c0.292,1.316,0.542,1.263,1.048,1.151l7.287-1.067c0.3-0.069,0.396-0.145,0.4-0.148c-0.007-0.088-0.143-0.701-0.201-0.963
			L66.823,20.42c-1.614-3.667-9.896-5.675-11.178-5.762c-0.033-0.002-0.105-0.008-0.138-0.014l-4.769-0.811
			c-1.008,0.46-4.333,1.857-7.575,1.857v-2c3.335,0,6.952-1.774,6.988-1.792c0.189-0.094,0.404-0.124,0.612-0.09l5.051,0.859
			c1.438,0.151,10.845,2.115,12.889,7.063c0.021,0.053,0.039,0.107,0.051,0.163l9.079,40.453c0.187,0.844,0.304,1.488,0.1,2.102
			c-0.319,0.961-1.231,1.266-1.891,1.412l-7.286,1.067C68.496,64.984,68.248,65.014,68.015,65.014z"/>
	</g>
	<g>
		<path fill="#FCFCFC" d="M43.163,70.774"/>
	</g>
	<g>
		<path fill="#FCFCFC" d="M43.163,70.774"/>
	</g>
	<g>
		<rect x="42.663" y="15.375" fill="#FCFCFC" width="1" height="54.548"/>
	</g>
	<g>
		<path fill="#FCFCFC" d="M49.918,27.362h-1.74c-0.276,0-0.5-0.224-0.5-0.5s0.224-0.5,0.5-0.5h1.74c0.276,0,0.5,0.224,0.5,0.5
			C50.418,27.138,50.194,27.362,49.918,27.362z"/>
	</g>
	<g>
		<path fill="#FCFCFC" d="M53.255,27.362h-1.74c-0.276,0-0.5-0.224-0.5-0.5s0.224-0.5,0.5-0.5h1.74c0.276,0,0.5,0.224,0.5,0.5
			C53.755,27.138,53.531,27.362,53.255,27.362z"/>
	</g>
	<g>
		<path fill="#FCFCFC" d="M32.011,63.195c-0.224,0-0.427-0.151-0.484-0.378c-0.066-0.265,0.092-0.534,0.354-0.604
			c0.065-0.021,2.917-0.999,2.917-8.847c0-0.276,0.224-0.5,0.5-0.5s0.5,0.224,0.5,0.5c0,8.793-3.516,9.777-3.666,9.814
			C32.093,63.19,32.052,63.195,32.011,63.195z"/>
	</g>
	<g>
		<path fill="#FCFCFC" d="M53.671,63.195c-0.04,0-0.081-0.005-0.121-0.015c-0.15-0.038-3.666-1.021-3.666-9.814
			c0-0.276,0.224-0.5,0.5-0.5s0.5,0.224,0.5,0.5c0,7.898,2.889,8.838,2.918,8.847c0.261,0.077,0.417,0.35,0.346,0.612
			C54.089,63.048,53.89,63.195,53.671,63.195z"/>
	</g>
	<g>
		<rect x="29.803" y="67.57" fill="#FCFCFC" width="0.5" height="2.353"/>
	</g>
	<g>
		<rect x="27.803" y="67.57" fill="#FCFCFC" width="0.5" height="2.353"/>
	</g>
	<g>
		<rect x="31.761" y="67.57" fill="#FCFCFC" width="0.5" height="2.353"/>
	</g>
	<g>
		<rect x="33.74" y="67.57" fill="#FCFCFC" width="0.5" height="2.353"/>
	</g>
	<g>
		<rect x="35.428" y="67.57" fill="#FCFCFC" width="0.5" height="2.353"/>
	</g>
	<g>
		
			<rect x="11.54" y="60.039" transform="matrix(-0.9838 -0.1795 0.1795 -0.9838 12.4 123.5521)" fill="#FCFCFC" width="0.5" height="2.353"/>
	</g>
	<g>
		
			<rect x="12.954" y="60.039" transform="matrix(-0.9838 -0.1795 0.1795 -0.9838 15.2068 123.8062)" fill="#FCFCFC" width="0.5" height="2.353"/>
	</g>
	<g>
		
			<rect x="14.293" y="60.23" transform="matrix(-0.9837 -0.1797 0.1797 -0.9837 17.8147 124.4262)" fill="#FCFCFC" width="0.5" height="2.353"/>
	</g>
	<g>
		
			<rect x="15.637" y="60.411" transform="matrix(-0.9838 -0.1795 0.1795 -0.9838 20.4608 125.0256)" fill="#FCFCFC" width="0.5" height="2.353"/>
	</g>
	<g>
		
			<rect x="16.931" y="60.66" transform="matrix(-0.9837 -0.1797 0.1797 -0.9837 22.9708 125.7531)" fill="#FCFCFC" width="0.5" height="2.353"/>
	</g>
	<g>
		<rect x="37.303" y="67.57" fill="#FCFCFC" width="0.5" height="2.353"/>
	</g>
	<g>
		<rect x="39.365" y="67.57" fill="#FCFCFC" width="0.5" height="2.353"/>
	</g>
	<g>
		<rect x="41.115" y="67.57" fill="#FCFCFC" width="0.5" height="2.353"/>
	</g>
	<g>
		<rect x="44.928" y="67.57" fill="#FCFCFC" width="0.5" height="2.353"/>
	</g>
	<g>
		<rect x="46.437" y="67.57" fill="#FCFCFC" width="0.5" height="2.353"/>
	</g>
	<g>
		<rect x="48.416" y="67.57" fill="#FCFCFC" width="0.5" height="2.353"/>
	</g>
	<g>
		<rect x="50.103" y="67.57" fill="#FCFCFC" width="0.5" height="2.353"/>
	</g>
	<g>
		<rect x="51.978" y="67.57" fill="#FCFCFC" width="0.5" height="2.353"/>
	</g>
	<g>
		<rect x="54.041" y="67.57" fill="#FCFCFC" width="0.5" height="2.353"/>
	</g>
	<g>
		<rect x="55.791" y="67.57" fill="#FCFCFC" width="0.5" height="2.353"/>
	</g>
	<g>
		<rect x="57.791" y="67.57" fill="#FCFCFC" width="0.5" height="2.353"/>
	</g>
	<g>
		<rect x="26.51" y="67.07" fill="#FCFCFC" width="33.383" height="1"/>
	</g>
	<g>
		
			<rect x="9.684" y="59.615" transform="matrix(-0.9871 -0.16 0.16 -0.9871 19.6983 121.8162)" fill="#FCFCFC" width="10.14" height="1"/>
	</g>
	<g>
		
			<rect x="73.205" y="61.024" transform="matrix(-0.1797 -0.9837 0.9837 -0.1797 27.4716 145.455)" fill="#FCFCFC" width="2.353" height="0.5"/>
	</g>
	<g>
		
			<rect x="71.786" y="61.024" transform="matrix(-0.1793 -0.9838 0.9838 -0.1793 25.7637 144.0401)" fill="#FCFCFC" width="2.353" height="0.5"/>
	</g>
	<g>
		
			<rect x="70.451" y="61.219" transform="matrix(-0.1797 -0.9837 0.9837 -0.1797 24.0304 142.9762)" fill="#FCFCFC" width="2.353" height="0.5"/>
	</g>
	<g>
		
			<rect x="69.108" y="61.396" transform="matrix(-0.1797 -0.9837 0.9837 -0.1797 22.2733 141.8643)" fill="#FCFCFC" width="2.353" height="0.5"/>
	</g>
	<g>
		
			<rect x="67.814" y="61.648" transform="matrix(-0.1797 -0.9837 0.9837 -0.1797 20.4975 140.8883)" fill="#FCFCFC" width="2.353" height="0.5"/>
	</g>
	<g>
		
			<rect x="70.915" y="55.112" transform="matrix(-0.1602 -0.9871 0.9871 -0.1602 23.4516 140.3157)" fill="#FCFCFC" width="1" height="10.14"/>
	</g>
	<g>
		<path fill="#FCFCFC" d="M45.48,19.341c-0.451,0-0.874-0.176-1.193-0.495l-0.111-0.169l-1.531-3.86l4.029,1.643
			c0.657,0.657,0.657,1.727,0,2.386C46.355,19.165,45.931,19.341,45.48,19.341z M45.062,18.199c0.263,0.203,0.666,0.18,0.905-0.059
			c0.246-0.247,0.266-0.635,0.059-0.904L44.428,16.6L45.062,18.199z"/>
	</g>
</g>
</svg>
