<?xml version="1.0" encoding="utf-8"?>
<!-- Generator: Adobe Illustrator 17.0.0, SVG Export Plug-In . SVG Version: 6.00 Build 0)  -->
<!DOCTYPE svg PUBLIC "-//W3C//DTD SVG 1.1//EN" "http://www.w3.org/Graphics/SVG/1.1/DTD/svg11.dtd">
<svg version="1.1" id="Layer_1" xmlns="http://www.w3.org/2000/svg" xmlns:xlink="http://www.w3.org/1999/xlink" x="0px" y="0px"
	 width="65.599px" height="47.632px" viewBox="0 0 65.599 47.632" enable-background="new 0 0 65.599 47.632" xml:space="preserve">
<path fill="none" stroke="#FFFFFF" stroke-width="3" stroke-linecap="round" stroke-linejoin="round" stroke-miterlimit="10" d="
	M54.258,20.639c5.181,1.163,9.052,5.791,9.052,11.322c0,6.409-5.196,11.604-11.604,11.604H14.191
	c-6.409,0-11.605-4.559-11.605-10.968c0-5.482,3.801-10.076,8.911-11.29c-0.315-0.935-0.486-1.938-0.486-2.979
	c0-5.159,4.182-9.341,9.341-9.341c2.561,0,4.88,1.03,6.568,2.699l0.001,0c2.273-5.01,7.319-8.495,13.18-8.495
	c7.988,0,14.465,6.476,14.465,14.465c0,1.024-0.309,2.987-0.309,2.987V20.639z"/>
</svg>
