<?xml version="1.0" encoding="utf-8"?>
<!-- Generator: Adobe Illustrator 17.0.0, SVG Export Plug-In . SVG Version: 6.00 Build 0)  -->
<!DOCTYPE svg PUBLIC "-//W3C//DTD SVG 1.1//EN" "http://www.w3.org/Graphics/SVG/1.1/DTD/svg11.dtd">
<svg version="1.1" id="Layer_1" xmlns="http://www.w3.org/2000/svg" xmlns:xlink="http://www.w3.org/1999/xlink" x="0px" y="0px"
	 width="65.599px" height="47.632px" viewBox="0 0 65.599 47.632" enable-background="new 0 0 65.599 47.632" xml:space="preserve">
<path fill="none" stroke="#FFFFFF" stroke-width="3" stroke-linecap="round" stroke-linejoin="round" stroke-miterlimit="10" d="
	M40.47,29.072c3.85,0.864,6.727,4.303,6.727,8.414c0,4.763-3.861,8.624-8.624,8.624H10.695c-4.763,0-8.624-3.388-8.624-8.151
	c0-4.073,2.824-7.488,6.622-8.39c-0.234-0.695-0.36-1.44-0.36-2.214c0-3.833,3.107-6.942,6.941-6.942
	c1.903,0,3.627,0.766,4.881,2.005l0.001,0c1.689-3.723,5.439-6.313,9.794-6.313c5.936,0,10.75,4.813,10.75,10.75
	c0,0.762-0.229,2.22-0.229,2.22V29.072z"/>
<path fill="none" stroke="#FFFFFF" stroke-width="3" stroke-linecap="round" stroke-linejoin="round" stroke-miterlimit="10" d="
	M33.43,16.682c1.565-1.756,3.711-3.019,6.207-3.461c5.898-1.043,11.525,2.892,12.568,8.79c0.863,4.876-1.678,9.567-5.916,11.636"/>
<line fill="none" stroke="#FFFFFF" stroke-width="3" stroke-linecap="round" stroke-linejoin="round" stroke-miterlimit="10" x1="41.547" y1="5.734" x2="41.521" y2="1.522"/>
<line fill="none" stroke="#FFFFFF" stroke-width="3" stroke-linecap="round" stroke-linejoin="round" stroke-miterlimit="10" x1="59.315" y1="25.548" x2="63.528" y2="25.521"/>
<line fill="none" stroke="#FFFFFF" stroke-width="3" stroke-linecap="round" stroke-linejoin="round" stroke-miterlimit="10" x1="54.977" y1="11.101" x2="57.937" y2="8.104"/>
<line fill="none" stroke="#FFFFFF" stroke-width="3" stroke-linecap="round" stroke-linejoin="round" stroke-miterlimit="10" x1="27.069" y1="11.101" x2="24.11" y2="8.104"/>
<line fill="none" stroke="#FFFFFF" stroke-width="3" stroke-linecap="round" stroke-linejoin="round" stroke-miterlimit="10" x1="56.287" y1="40.79" x2="53.327" y2="37.793"/>
</svg>
