<?xml version="1.0" encoding="utf-8"?>
<!-- Generator: Adobe Illustrator 17.0.0, SVG Export Plug-In . SVG Version: 6.00 Build 0)  -->
<!DOCTYPE svg PUBLIC "-//W3C//DTD SVG 1.1//EN" "http://www.w3.org/Graphics/SVG/1.1/DTD/svg11.dtd">
<svg version="1.1" id="Layer_1" xmlns="http://www.w3.org/2000/svg" xmlns:xlink="http://www.w3.org/1999/xlink" x="0px" y="0px"
	 width="65.599px" height="47.632px" viewBox="0 0 65.599 47.632" enable-background="new 0 0 65.599 47.632" xml:space="preserve">
<path fill="none" stroke="#FFFFFF" stroke-width="3" stroke-linecap="round" stroke-linejoin="round" stroke-miterlimit="10" d="
	M48.868,23.567c4.702,1.055,8.216,5.256,8.216,10.277c0,5.817-4.716,10.533-10.533,10.533H12.5c-5.817,0-10.533-4.138-10.533-9.955
	c0-4.976,3.45-9.146,8.088-10.248c-0.286-0.849-0.441-1.759-0.441-2.705c0-4.683,3.796-8.479,8.479-8.479
	c2.324,0,4.43,0.936,5.961,2.45l0.001,0c2.063-4.547,6.644-7.71,11.962-7.71c7.251,0,13.13,5.878,13.13,13.129
	c0,0.93-0.28,2.711-0.28,2.711V23.567z"/>
<path fill="none" stroke="#FFFFFF" stroke-width="3" stroke-linecap="round" stroke-linejoin="round" stroke-miterlimit="10" d="
	M40.269,8.433c1.911-2.145,4.531-3.688,7.581-4.228c7.204-1.274,14.077,3.533,15.351,10.736c1.054,5.956-2.048,11.685-7.225,14.212"
	/>
</svg>
