<?xml version="1.0" encoding="utf-8"?>
<!-- Generator: Adobe Illustrator 17.0.0, SVG Export Plug-In . SVG Version: 6.00 Build 0)  -->
<!DOCTYPE svg PUBLIC "-//W3C//DTD SVG 1.1//EN" "http://www.w3.org/Graphics/SVG/1.1/DTD/svg11.dtd">
<svg version="1.1" id="Layer_1" xmlns="http://www.w3.org/2000/svg" xmlns:xlink="http://www.w3.org/1999/xlink" x="0px" y="0px"
	 width="59.528px" height="59.528px" viewBox="3.036 -5.948 59.528 59.528" enable-background="new 3.036 -5.948 59.528 59.528"
	 xml:space="preserve">
<path fill="none" stroke="#FFFFFF" stroke-width="3" stroke-linecap="round" stroke-linejoin="round" stroke-miterlimit="10" d="
	M39.493,27.816c3.395,0.762,5.932,3.794,5.932,7.42c0,4.2-3.405,7.605-7.605,7.605H13.238c-4.2,0-7.605-2.988-7.605-7.188
	c0-3.592,2.49-6.603,5.839-7.398c-0.206-0.613-0.317-1.27-0.317-1.952c0-3.38,2.74-6.122,6.121-6.122
	c1.678,0,3.198,0.675,4.304,1.768h0.001c1.489-3.283,4.796-5.567,8.636-5.567c5.234,0,9.479,4.244,9.479,9.479
	c0,0.672-0.202,1.958-0.202,1.958L39.493,27.816L39.493,27.816z"/>
<path fill="none" stroke="#FFFFFF" stroke-width="3" stroke-linecap="round" stroke-linejoin="round" stroke-miterlimit="10" d="
	M33.285,16.89c1.38-1.548,3.272-2.662,5.473-3.052c5.201-0.92,10.163,2.55,11.083,7.751c0.761,4.3-1.48,8.436-5.217,10.261"/>
<line fill="none" stroke="#FFFFFF" stroke-width="3" stroke-linecap="round" stroke-linejoin="round" stroke-miterlimit="10" x1="40.443" y1="7.236" x2="40.42" y2="3.522"/>
<line fill="none" stroke="#FFFFFF" stroke-width="3" stroke-linecap="round" stroke-linejoin="round" stroke-miterlimit="10" x1="56.111" y1="24.708" x2="59.826" y2="24.684"/>
<line fill="none" stroke="#FFFFFF" stroke-width="3" stroke-linecap="round" stroke-linejoin="round" stroke-miterlimit="10" x1="52.286" y1="11.969" x2="54.896" y2="9.326"/>
<line fill="none" stroke="#FFFFFF" stroke-width="3" stroke-linecap="round" stroke-linejoin="round" stroke-miterlimit="10" x1="27.676" y1="11.969" x2="25.067" y2="9.326"/>
<line fill="none" stroke="#FFFFFF" stroke-width="3" stroke-linecap="round" stroke-linejoin="round" stroke-miterlimit="10" x1="53.441" y1="38.149" x2="50.831" y2="35.506"/>
</svg>
