<?xml version="1.0" encoding="utf-8"?>
<!-- Generator: Adobe Illustrator 17.0.0, SVG Export Plug-In . SVG Version: 6.00 Build 0)  -->
<!DOCTYPE svg PUBLIC "-//W3C//DTD SVG 1.1//EN" "http://www.w3.org/Graphics/SVG/1.1/DTD/svg11.dtd">
<svg version="1.1" id="Layer_1" xmlns="http://www.w3.org/2000/svg" xmlns:xlink="http://www.w3.org/1999/xlink" x="0px" y="0px"
	 width="59.528px" height="59.528px" viewBox="3.036 4.916 59.528 59.528" enable-background="new 3.036 4.916 59.528 59.528"
	 xml:space="preserve">
<path fill="none" stroke="#FFFFFF" stroke-width="3" stroke-linecap="round" stroke-linejoin="round" stroke-miterlimit="10" d="
	M52.055,22.426c4.775,1.072,8.342,5.337,8.342,10.434c0,5.906-4.788,10.694-10.694,10.694H15.132
	c-5.906,0-10.694-4.201-10.694-10.108c0-5.052,3.503-9.286,8.212-10.404c-0.29-0.862-0.448-1.786-0.448-2.745
	c0-4.754,3.854-8.608,8.608-8.608c2.36,0,4.497,0.949,6.053,2.487h0.001c2.096-4.617,6.745-7.829,12.146-7.829
	c7.361,0,13.33,5.969,13.33,13.33c0,0.944-0.285,2.753-0.285,2.753V22.426z"/>
<line fill="none" stroke="#FFFFFF" stroke-width="3" stroke-linecap="round" stroke-linejoin="round" stroke-miterlimit="10" x1="16.671" y1="51.425" x2="21.7" y2="56.455"/>
<line fill="none" stroke="#FFFFFF" stroke-width="3" stroke-linecap="round" stroke-linejoin="round" stroke-miterlimit="10" x1="16.671" y1="56.571" x2="21.759" y2="51.484"/>
<line fill="none" stroke="#FFFFFF" stroke-width="3" stroke-linecap="round" stroke-linejoin="round" stroke-miterlimit="10" x1="42.445" y1="51.367" x2="47.475" y2="56.397"/>
<line fill="none" stroke="#FFFFFF" stroke-width="3" stroke-linecap="round" stroke-linejoin="round" stroke-miterlimit="10" x1="42.445" y1="56.513" x2="47.533" y2="51.425"/>
<line fill="none" stroke="#FFFFFF" stroke-width="3" stroke-linecap="round" stroke-linejoin="round" stroke-miterlimit="10" x1="29.268" y1="56.763" x2="34.299" y2="61.793"/>
<line fill="none" stroke="#FFFFFF" stroke-width="3" stroke-linecap="round" stroke-linejoin="round" stroke-miterlimit="10" x1="29.268" y1="61.908" x2="34.356" y2="56.82"/>
</svg>
