<?xml version="1.0" encoding="utf-8"?>
<!-- Generator: Adobe Illustrator 17.0.0, SVG Export Plug-In . SVG Version: 6.00 Build 0)  -->
<!DOCTYPE svg PUBLIC "-//W3C//DTD SVG 1.1//EN" "http://www.w3.org/Graphics/SVG/1.1/DTD/svg11.dtd">
<svg version="1.1" id="Layer_1" xmlns="http://www.w3.org/2000/svg" xmlns:xlink="http://www.w3.org/1999/xlink" x="0px" y="0px"
	 width="65.599px" height="69.359px" viewBox="0 0 65.599 69.359" enable-background="new 0 0 65.599 69.359" xml:space="preserve">
<path fill="none" stroke="#FFFFFF" stroke-width="3" stroke-linecap="round" stroke-linejoin="round" stroke-miterlimit="10" d="
	M54.109,21.795c5.181,1.163,9.052,5.791,9.052,11.322c0,6.409-5.196,11.604-11.604,11.604H14.042
	c-6.409,0-11.604-4.559-11.604-10.968c0-5.482,3.801-10.076,8.911-11.29c-0.315-0.935-0.486-1.938-0.486-2.979
	c0-5.159,4.182-9.341,9.341-9.341c2.561,0,4.88,1.03,6.568,2.699l0.001,0c2.274-5.01,7.319-8.495,13.18-8.495
	c7.988,0,14.465,6.477,14.465,14.465c0,1.024-0.309,2.987-0.309,2.987V21.795z"/>
<line fill="none" stroke="#FFFFFF" stroke-width="3" stroke-linecap="round" stroke-linejoin="round" stroke-miterlimit="10" x1="15.712" y1="53.263" x2="21.17" y2="58.721"/>
<line fill="none" stroke="#FFFFFF" stroke-width="3" stroke-linecap="round" stroke-linejoin="round" stroke-miterlimit="10" x1="15.712" y1="58.847" x2="21.233" y2="53.326"/>
<line fill="none" stroke="#FFFFFF" stroke-width="3" stroke-linecap="round" stroke-linejoin="round" stroke-miterlimit="10" x1="43.681" y1="53.2" x2="49.139" y2="58.658"/>
<line fill="none" stroke="#FFFFFF" stroke-width="3" stroke-linecap="round" stroke-linejoin="round" stroke-miterlimit="10" x1="43.681" y1="58.784" x2="49.202" y2="53.263"/>
<line fill="none" stroke="#FFFFFF" stroke-width="3" stroke-linecap="round" stroke-linejoin="round" stroke-miterlimit="10" x1="29.382" y1="59.055" x2="34.841" y2="64.513"/>
<line fill="none" stroke="#FFFFFF" stroke-width="3" stroke-linecap="round" stroke-linejoin="round" stroke-miterlimit="10" x1="29.382" y1="64.638" x2="34.903" y2="59.117"/>
</svg>
