<?xml version="1.0" encoding="utf-8"?>
<!-- Generator: Adobe Illustrator 17.0.0, SVG Export Plug-In . SVG Version: 6.00 Build 0)  -->
<!DOCTYPE svg PUBLIC "-//W3C//DTD SVG 1.1//EN" "http://www.w3.org/Graphics/SVG/1.1/DTD/svg11.dtd">
<svg version="1.1" id="Layer_1" xmlns="http://www.w3.org/2000/svg" xmlns:xlink="http://www.w3.org/1999/xlink" x="0px" y="0px"
	 width="65.599px" height="69.359px" viewBox="0 0 65.599 69.359" enable-background="new 0 0 65.599 69.359" xml:space="preserve">
<path fill="none" stroke="#FFFFFF" stroke-width="3" stroke-linecap="round" stroke-linejoin="round" stroke-miterlimit="10" d="
	M53.35,24.011c4.997,1.121,8.731,5.584,8.731,10.919c0,6.181-5.012,11.191-11.191,11.191H14.71c-6.181,0-11.191-4.397-11.191-10.578
	c0-5.287,3.666-9.717,8.594-10.888c-0.304-0.901-0.469-1.869-0.469-2.873c0-4.976,4.033-9.009,9.01-9.009
	c2.469,0,4.707,0.993,6.334,2.603v0c2.193-4.832,7.059-8.193,12.711-8.193c7.704,0,13.951,6.246,13.951,13.95
	c0,0.988-0.299,2.881-0.299,2.881V24.011z"/>
<circle fill="#FFFFFF" stroke="#FFFFFF" stroke-linecap="round" stroke-linejoin="round" stroke-miterlimit="10" cx="19.619" cy="53.914" r="1.907"/>
<circle fill="#FFFFFF" stroke="#FFFFFF" stroke-linecap="round" stroke-linejoin="round" stroke-miterlimit="10" cx="33.418" cy="53.914" r="1.907"/>
<circle fill="#FFFFFF" stroke="#FFFFFF" stroke-linecap="round" stroke-linejoin="round" stroke-miterlimit="10" cx="47.216" cy="53.914" r="1.907"/>
<circle fill="#FFFFFF" stroke="#FFFFFF" stroke-linecap="round" stroke-linejoin="round" stroke-miterlimit="10" cx="26.619" cy="60.914" r="1.907"/>
<circle fill="#FFFFFF" stroke="#FFFFFF" stroke-linecap="round" stroke-linejoin="round" stroke-miterlimit="10" cx="40.418" cy="60.914" r="1.907"/>
</svg>
