<?xml version="1.0" encoding="utf-8"?>
<!-- Generator: Adobe Illustrator 17.0.0, SVG Export Plug-In . SVG Version: 6.00 Build 0)  -->
<!DOCTYPE svg PUBLIC "-//W3C//DTD SVG 1.1//EN" "http://www.w3.org/Graphics/SVG/1.1/DTD/svg11.dtd">
<svg version="1.1" id="Layer_1" xmlns="http://www.w3.org/2000/svg" xmlns:xlink="http://www.w3.org/1999/xlink" x="0px" y="0px"
	 width="65.599px" height="69.359px" viewBox="0 0 65.599 69.359" enable-background="new 0 0 65.599 69.359" xml:space="preserve">
<polygon fill="#FFFFFF" stroke="#FFFFFF" stroke-linecap="round" stroke-linejoin="round" stroke-miterlimit="10" points="
	28.34,45.375 20.965,54.585 28.04,54.673 19.861,65.458 44.143,52.019 35.621,51.974 40.132,45.375 "/>
<path fill="none" stroke="#FFFFFF" stroke-width="3" stroke-linecap="round" stroke-linejoin="round" stroke-miterlimit="10" d="
	M54.09,21.265c5.155,1.157,9.007,5.762,9.007,11.266c0,6.377-5.17,11.546-11.546,11.546h-37.33c-6.377,0-11.547-4.536-11.547-10.914
	c0-5.455,3.783-10.026,8.867-11.234c-0.314-0.93-0.483-1.928-0.483-2.964c0-5.134,4.161-9.295,9.295-9.295
	c2.548,0,4.856,1.024,6.536,2.685v0c2.263-4.986,7.283-8.453,13.115-8.453c7.949,0,14.394,6.444,14.394,14.393
	c0,1.019-0.308,2.972-0.308,2.972V21.265z"/>
</svg>
