<?xml version="1.0" encoding="utf-8"?>
<!-- Generator: Adobe Illustrator 17.0.0, SVG Export Plug-In . SVG Version: 6.00 Build 0)  -->
<!DOCTYPE svg PUBLIC "-//W3C//DTD SVG 1.1//EN" "http://www.w3.org/Graphics/SVG/1.1/DTD/svg11.dtd">
<svg version="1.1" id="Layer_1" xmlns="http://www.w3.org/2000/svg" xmlns:xlink="http://www.w3.org/1999/xlink" x="0px" y="0px"
	 width="59.528px" height="59.528px" viewBox="3.036 4.916 59.528 59.528" enable-background="new 3.036 4.916 59.528 59.528"
	 xml:space="preserve">
<polygon fill="#FFFFFF" stroke="#FFFFFF" stroke-linecap="round" stroke-linejoin="round" stroke-miterlimit="10" points="
	28.963,44.221 22.271,52.577 28.69,52.657 21.269,62.443 43.302,50.249 35.569,50.208 39.662,44.221 "/>
<path fill="none" stroke="#FFFFFF" stroke-width="3" stroke-linecap="round" stroke-linejoin="round" stroke-miterlimit="10" d="
	M52.327,22.344c4.677,1.05,8.173,5.228,8.173,10.222c0,5.786-4.691,10.476-10.476,10.476H16.151c-5.786,0-10.477-4.116-10.477-9.903
	c0-4.95,3.433-9.097,8.046-10.193c-0.285-0.844-0.438-1.749-0.438-2.689c0-4.658,3.776-8.434,8.434-8.434
	c2.312,0,4.406,0.929,5.931,2.436l0,0c2.053-4.524,6.608-7.67,11.9-7.67c7.213,0,13.061,5.847,13.061,13.06
	c0,0.925-0.279,2.697-0.279,2.697V22.344z"/>
</svg>
