<?xml version="1.0" encoding="utf-8"?>
<!-- Generator: Adobe Illustrator 17.0.0, SVG Export Plug-In . SVG Version: 6.00 Build 0)  -->
<!DOCTYPE svg PUBLIC "-//W3C//DTD SVG 1.1//EN" "http://www.w3.org/Graphics/SVG/1.1/DTD/svg11.dtd">
<svg version="1.1" id="Layer_1" xmlns="http://www.w3.org/2000/svg" xmlns:xlink="http://www.w3.org/1999/xlink" x="0px" y="0px"
	 width="65.599px" height="69.359px" viewBox="0 0 65.599 69.359" enable-background="new 0 0 65.599 69.359" xml:space="preserve">
<path fill="#FDFDFD" d="M52.179,34.833H9.257c-3.336,0-6.155,2.807-6.155,6.478c0,3.735,2.757,6.626,6.145,6.626
	c3.386,0,6.14-3.092,6.14-6.802c0-1.011-0.759-1.868-1.696-1.868c-0.937,0-1.696,0.801-1.696,1.813c0,1.662-1.258,3.057-2.748,3.057
	c-1.492,0-2.753-1.466-2.753-3.152c0-1.686,1.265-3.152,2.763-3.152h42.922c0.937,0,1.696-0.489,1.696-1.5
	C53.875,35.322,53.116,34.833,52.179,34.833z"/>
<path fill="#FDFDFD" d="M60.828,41.833H26.084c-4.261,0-7.728,3.922-7.728,8.568s3.451,8.497,7.693,8.497
	c4.232,0,7.675-3.729,7.675-8.357c0-1.011-0.759-1.813-1.696-1.813c-0.937,0-1.696,0.829-1.696,1.84
	c0,2.608-1.922,4.735-4.284,4.735c-2.372,0-4.301-2.108-4.301-4.735c0-2.582,1.986-4.735,4.336-4.735h34.744
	c0.937,0,1.696-0.989,1.696-2C62.524,42.822,61.765,41.833,60.828,41.833z"/>
<path fill="#FDFDFD" d="M14.759,13.767c-2.059,0-3.989,0.843-5.436,2.375c-1.461,1.547-2.266,3.933-2.266,6.158
	c0,4.535,3.463,8.533,7.719,8.533h42.321c0.937,0,1.696-0.989,1.696-2s-0.759-2-1.696-2H14.777c-2.427,0-4.327-2.144-4.327-4.702
	c0-2.558,1.893-4.632,4.31-4.632c2.412,0,4.301,1.983,4.301,4.56c0,1.011,0.759,1.814,1.696,1.814c0.937,0,1.696-0.829,1.696-1.84
	C22.453,17.48,19.002,13.767,14.759,13.767z"/>
</svg>
