<?xml version="1.0" encoding="utf-8"?>
<!-- Generator: Adobe Illustrator 17.0.0, SVG Export Plug-In . SVG Version: 6.00 Build 0)  -->
<!DOCTYPE svg PUBLIC "-//W3C//DTD SVG 1.1//EN" "http://www.w3.org/Graphics/SVG/1.1/DTD/svg11.dtd">
<svg version="1.1" id="Capa_1" xmlns="http://www.w3.org/2000/svg" xmlns:xlink="http://www.w3.org/1999/xlink" x="0px" y="0px"
	 width="22.677px" height="22.677px" viewBox="-2.482 -2.482 22.677 22.677" enable-background="new -2.482 -2.482 22.677 22.677"
	 xml:space="preserve">
<g>
	<g>
		<path fill="#FFFFFF" d="M8.857-2.43C2.618-2.43-2.43,2.619-2.43,8.857c0,6.239,5.049,11.287,11.287,11.287
			c6.239,0,11.287-5.049,11.287-11.287C20.144,2.618,15.095-2.43,8.857-2.43z M8.857,18.38c-5.264,0-9.523-4.259-9.523-9.523
			c0-5.264,4.259-9.523,9.523-9.523s9.523,4.259,9.523,9.523C18.38,14.121,14.121,18.38,8.857,18.38z"/>
	</g>
</g>
<g>
	<g>
		<path fill="#FFFFFF" d="M8.857,3.253c-0.487,0-0.881,0.394-0.881,0.881v5.679c0,0.487,0.394,0.881,0.881,0.881
			c0.487,0,0.881-0.394,0.881-0.881V4.134C9.738,3.647,9.344,3.253,8.857,3.253z"/>
	</g>
</g>
<g>
	<g>
		<circle fill="#FFFFFF" cx="8.857" cy="12.964" r="1.19"/>
	</g>
</g>
</svg>
