<?xml version="1.0" encoding="utf-8"?>
<!-- Generator: Adobe Illustrator 17.0.0, SVG Export Plug-In . SVG Version: 6.00 Build 0)  -->
<!DOCTYPE svg PUBLIC "-//W3C//DTD SVG 1.1//EN" "http://www.w3.org/Graphics/SVG/1.1/DTD/svg11.dtd">
<svg version="1.1" id="Layer_1" xmlns="http://www.w3.org/2000/svg" xmlns:xlink="http://www.w3.org/1999/xlink" x="0px" y="0px"
	 width="85.04px" height="85.04px" viewBox="0 0 85.04 85.04" enable-background="new 0 0 85.04 85.04" xml:space="preserve">
<g>
	<g>
		<path fill="#FCFCFC" d="M25.79,54.14c-8.902,0-13.344-1.752-13.579-5.355c-0.011-0.175,0.023-0.35,0.101-0.507
			c0.213-0.433,2.468-4.291,15.886-6.487c5.597-0.917,14.299-8.029,14.387-8.102c0.556-0.441,5.396-4.226,8.176-4.226
			c0.961,0,1.515,0.416,1.811,0.766c0.544,0.643,0.704,1.586,0.488,2.883c-0.125,0.752,0.107,1.026,0.184,1.117
			c0.373,0.439,1.314,0.682,2.651,0.682c5.02,0,13.585-3.269,13.671-3.303c0.444-0.171,0.949-0.004,1.203,0.398
			c0.194,0.306,4.729,7.576,3.182,15.753c-0.088,0.468-0.493,0.808-0.969,0.814c-0.164,0.002-16.511,0.257-25.678,3.144
			C45.234,52.306,34.891,54.14,25.79,54.14z M14.257,48.976c0.518,2.016,4.672,3.164,11.532,3.164c8.767,0,19.028-1.795,20.937-2.34
			c8.319-2.619,21.859-3.122,25.386-3.21c0.784-5.73-1.651-10.976-2.639-12.816c-2.324,0.841-9.085,3.137-13.582,3.137
			c-2.019,0-3.385-0.454-4.177-1.389c-0.603-0.712-0.815-1.633-0.63-2.738c0.167-1.003-0.032-1.252-0.041-1.263
			c-0.024-0.028-0.122-0.058-0.285-0.058c-1.572,0-5.078,2.319-6.918,3.781c-0.36,0.296-9.193,7.516-15.321,8.521
			C18.003,45.485,14.941,48.196,14.257,48.976z"/>
	</g>
	<g>
		<path fill="#FCFCFC" d="M53.68,54.049c-0.549,0-0.996-0.443-1-0.992l-0.028-3.773c-0.004-0.511,0.378-0.942,0.885-1.001
			l19.142-2.209c0.284-0.035,0.567,0.057,0.78,0.246s0.335,0.461,0.335,0.746l0.005,5.969c0,0.266-0.105,0.52-0.292,0.708
			c-0.188,0.188-0.441,0.293-0.707,0.293L53.68,54.049L53.68,54.049z M54.659,50.166l0.014,1.882l17.125-0.012l-0.003-3.848
			L54.659,50.166z"/>
	</g>
	<g>
		<path fill="#FCFCFC" d="M31.37,53.277c-4.863-4.856-0.121-12.211-0.072-12.284l0.836,0.549c-0.044,0.067-4.341,6.749-0.057,11.028
			L31.37,53.277z"/>
	</g>
	<g>
		<path fill="#FCFCFC" d="M42.315,40.334c-0.128,0-0.255-0.049-0.353-0.146l-2.585-2.58c-0.196-0.194-0.196-0.512-0.001-0.707
			s0.512-0.195,0.707,0l2.585,2.58c0.196,0.194,0.196,0.512,0.001,0.707C42.571,40.285,42.443,40.334,42.315,40.334z"/>
	</g>
	<g>
		<path fill="#FCFCFC" d="M44.793,38.779c-0.128,0-0.256-0.049-0.354-0.146l-2.584-2.582c-0.195-0.195-0.195-0.512,0-0.707
			s0.512-0.195,0.707,0l2.584,2.582c0.195,0.195,0.195,0.512,0,0.707C45.048,38.73,44.92,38.779,44.793,38.779z"/>
	</g>
	<g>
		<path fill="#FCFCFC" d="M47.163,37.158c-0.128,0-0.256-0.049-0.354-0.146l-2.584-2.582c-0.195-0.195-0.195-0.512,0-0.707
			s0.512-0.195,0.707,0l2.584,2.582c0.195,0.195,0.195,0.512,0,0.707C47.419,37.109,47.291,37.158,47.163,37.158z"/>
	</g>
</g>
</svg>
