<?xml version="1.0" encoding="utf-8"?>
<!-- Generator: Adobe Illustrator 17.0.0, SVG Export Plug-In . SVG Version: 6.00 Build 0)  -->
<!DOCTYPE svg PUBLIC "-//W3C//DTD SVG 1.1//EN" "http://www.w3.org/Graphics/SVG/1.1/DTD/svg11.dtd">
<svg version="1.1" id="Layer_1" xmlns="http://www.w3.org/2000/svg" xmlns:xlink="http://www.w3.org/1999/xlink" x="0px" y="0px"
	 width="85.04px" height="85.04px" viewBox="0 0 85.04 85.04" enable-background="new 0 0 85.04 85.04" xml:space="preserve">
<path id="Shape" fill="#FFFFFF" d="M19.751,51.503c0,5.503,1.878,8.545,2.714,9.616l-1.775,6.094
	c-0.102,0.332-0.011,0.694,0.235,0.939c0.319,0.319,3.484,3.099,15.766,2.15c0.285-0.023,0.545-0.175,0.704-0.413l1.371-2.056
	c1.944,1.089,7.381,3.409,18.508,3.409c14.461,0,18.489-6.761,18.658-7.043c0.143-0.249,0.164-0.55,0.056-0.817l-1.878-4.573
	c-0.178-2.432-3.324-7.287-12.207-7.287c-4.761,0-8.245-2.169-11.203-5.315l0.601-0.592c0.366-0.368,0.364-0.963-0.005-1.329
	c-0.368-0.366-0.963-0.364-1.329,0.005l-0.507,0.498c-0.639-0.77-1.258-1.587-1.878-2.432l0.648-0.319
	c0.224-0.113,0.393-0.31,0.471-0.548s0.057-0.497-0.057-0.72c-0.234-0.46-0.797-0.645-1.258-0.413l-0.892,0.451
	c-0.907-1.242-1.67-2.585-2.272-4l1.183-0.404c0.493-0.166,0.758-0.7,0.592-1.193s-0.7-0.758-1.193-0.592l-1.146,0.385
	c-0.562-1.593-1.02-3.221-1.371-4.874l1.099-0.244c0.348-0.049,0.64-0.288,0.756-0.621s0.036-0.701-0.206-0.956
	s-0.607-0.353-0.945-0.254L41.93,28.29c-0.28-1.667-0.474-3.347-0.582-5.033c-0.03-0.496-0.442-0.884-0.939-0.883
	c-5.417-0.077-10.83,0.344-16.17,1.258c1.249-1.919,1.612-4.283,0.995-6.489c-0.855-2.686-3.24-3.211-4.442-0.808
	c-1.878,3.756-0.394,8.254-0.085,9.09c0.085,0.855,0.61,3.672,1.878,9.39C24.446,42.976,19.751,44.601,19.751,51.503L19.751,51.503z
	 M57.312,69.344c-13.466,0-18.151-3.521-18.189-3.55c-0.206-0.165-0.472-0.236-0.733-0.195s-0.492,0.19-0.638,0.411l-1.625,2.432
	c-8.714,0.61-12.282-0.761-13.409-1.371l1.484-5.193c17.222,0.939,14.94,2.733,27.335,4.639c9.062,1.399,17.926-1.878,21.541-5.465
	l1.014,2.582C73.069,64.884,68.721,69.344,57.312,69.344z M72.336,58.94c-0.338,1.343-8.789,7.512-20.518,5.7
	c-6.855-1.005-9.156-2.066-13.287-2.986c4.883-5.606,14.649-2.714,14.752-2.714c0.457,0.14,0.947-0.087,1.136-0.526
	c0.903-1.972,1.447-4.09,1.606-6.254c1.892,0.804,3.926,1.219,5.982,1.221C69.792,53.381,72.336,57.569,72.336,58.94z
	 M22.465,17.181c0.088-0.184,0.205-0.352,0.347-0.498c0.723,0.272,1.794,3.756-0.732,6.761
	C21.502,21.373,21.638,19.167,22.465,17.181z M23.188,45.286c3.268-7.709,1.164-9.278-0.516-19.391
	c1.878-0.46,7.24-1.559,16.903-1.615c0.085,0.939,0.263,2.526,0.592,4.413L37.2,29.36c-0.719-1.169-2.175-1.651-3.449-1.139
	c-1.274,0.511-1.994,1.866-1.705,3.208c0.289,1.342,1.503,2.28,2.874,2.221s2.501-1.097,2.674-2.458l2.92-0.648
	c0.359,1.724,0.826,3.424,1.399,5.09l-3.014,0.995c-0.847-1.079-2.348-1.391-3.555-0.739s-1.769,2.078-1.331,3.378
	s1.748,2.095,3.103,1.884c1.355-0.211,2.361-1.368,2.383-2.739l3.042-1.07c0.628,1.502,1.422,2.928,2.366,4.254l-2.545,1.277
	c-0.994-0.939-2.519-1.028-3.616-0.211s-1.449,2.303-0.835,3.525c0.614,1.222,2.017,1.826,3.327,1.433s2.148-1.67,1.988-3.028
	l2.817-1.399c0.676,0.939,1.418,1.953,2.235,2.93L46.4,48c-1.208-0.659-2.715-0.349-3.564,0.733s-0.794,2.619,0.132,3.637
	c0.926,1.017,2.452,1.217,3.608,0.472c1.157-0.745,1.606-2.216,1.064-3.48l1.878-1.878c1.375,1.473,2.956,2.738,4.695,3.756
	c0.01,1.938-0.383,3.857-1.155,5.634c-2.817-0.676-11.851-2.225-16.471,4.291c-4.178-0.657-8.393-1.052-12.621-1.183
	c-0.62-0.798-2.338-3.484-2.338-8.479C21.684,49.341,22.216,47.218,23.188,45.286L23.188,45.286z M35.714,30.844
	c0,0.519-0.42,0.939-0.939,0.939s-0.939-0.42-0.939-0.939s0.42-0.939,0.939-0.939C35.294,29.905,35.714,30.326,35.714,30.844z
	 M37.592,38.356c0,0.519-0.42,0.939-0.939,0.939s-0.939-0.42-0.939-0.939s0.42-0.939,0.939-0.939S37.592,37.838,37.592,38.356z
	 M41.348,44.93c0,0.519-0.42,0.939-0.939,0.939s-0.939-0.42-0.939-0.939s0.42-0.939,0.939-0.939S41.348,44.411,41.348,44.93z
	 M45.105,51.503c-0.425,0.002-0.798-0.282-0.91-0.692s0.066-0.844,0.433-1.058c0.367-0.214,0.832-0.155,1.134,0.145
	c0.27,0.267,0.352,0.671,0.208,1.022C45.826,51.271,45.484,51.501,45.105,51.503L45.105,51.503z"/>
</svg>
