<?xml version="1.0" encoding="utf-8"?>
<!-- Generator: Adobe Illustrator 17.0.0, SVG Export Plug-In . SVG Version: 6.00 Build 0)  -->
<!DOCTYPE svg PUBLIC "-//W3C//DTD SVG 1.1//EN" "http://www.w3.org/Graphics/SVG/1.1/DTD/svg11.dtd">
<svg version="1.1" id="Layer_1" xmlns="http://www.w3.org/2000/svg" xmlns:xlink="http://www.w3.org/1999/xlink" x="0px" y="0px"
	 width="85.04px" height="85.04px" viewBox="0 0 85.04 85.04" enable-background="new 0 0 85.04 85.04" xml:space="preserve">
<g>
	<g>
		<path fill="#FFFFFF" d="M65.147,50.742h-2V39.795c0-11.059-8.912-20.055-19.866-20.055c-11.112,0-20.5,9.184-20.5,20.055v10.947
			h-2V39.795c0-11.955,10.304-22.055,22.5-22.055c12.057,0,21.866,9.894,21.866,22.055V50.742z"/>
	</g>
	<g>
		<path fill="#FFFFFF" d="M64.43,65.965H21.292c-1.879,0-3.408-1.529-3.408-3.408v-8.604c0-1.618,1.375-4.713,3.53-4.713h42.733
			c2.132,0,3.69,3.1,3.69,4.713v8.604C67.837,64.436,66.309,65.965,64.43,65.965z M21.414,51.24c-0.514,0-1.53,1.648-1.53,2.713
			v8.604c0,0.776,0.632,1.408,1.408,1.408H64.43c0.776,0,1.407-0.632,1.407-1.408v-8.604c0-1.037-1.138-2.713-1.69-2.713H21.414z"/>
	</g>
	<g>
		<path fill="#FFFFFF" d="M46.29,61.258h-6.019c-0.276,0-0.5-0.224-0.5-0.5v-5.656c0-0.276,0.224-0.5,0.5-0.5h6.019
			c0.276,0,0.5,0.224,0.5,0.5v5.656C46.79,61.034,46.566,61.258,46.29,61.258z M40.771,60.258h5.019v-4.656h-5.019V60.258z"/>
	</g>
</g>
</svg>
