<?xml version="1.0" encoding="utf-8"?>
<!-- Generator: Adobe Illustrator 17.0.0, SVG Export Plug-In . SVG Version: 6.00 Build 0)  -->
<!DOCTYPE svg PUBLIC "-//W3C//DTD SVG 1.1//EN" "http://www.w3.org/Graphics/SVG/1.1/DTD/svg11.dtd">
<svg version="1.1" id="Layer_1" xmlns="http://www.w3.org/2000/svg" xmlns:xlink="http://www.w3.org/1999/xlink" x="0px" y="0px"
	 width="85.04px" height="85.04px" viewBox="0 0 85.04 85.04" enable-background="new 0 0 85.04 85.04" xml:space="preserve">
<path fill="#FFFFFF" d="M74.132,32.452l-0.455-1.266l-1.288,0.388c-2.912,0.878-5.777,1.323-8.515,1.323
	c-4.376,0-7.705-1.148-9.727-2.112c-2.202-1.049-3.382-2.115-3.39-2.122l-0.664-0.615l-0.837,0.343
	c-16.336,6.702-25.635,8.688-31.207,9.598c-3.719,0.608-6.464,3.152-7.938,7.359c-1.053,3.006-1.082,5.818-1.083,5.937L9.02,52.711
	h0.009v5.937H77.04v-5.937v-1.417C77.04,40.676,74.251,32.783,74.132,32.452z M75.54,53.52l-13.062-0.312
	c0.432-6.958,6.325-16.522,10.375-19.938C73.605,35.99,75.38,47.055,75.54,53.52z M49.665,29.77
	c0.656,0.492,2.313,1.962,3.812,2.688c4.179,2.023,7.631,2,10.375,2c1.27,0,5.051-0.491,6.359-0.662
	c-1.107,1.113-3.307,4.35-4.234,5.725c-2.152,3.193-4.656,9.759-4.875,13.75h-35.5c0.387-4.201,0.354-12.499,0-15.188
	c1.857-0.454,4.354-1.234,6.688-1.938l0.625,6.472l1.562-0.16l-0.875-6.562c1.087-0.351,3.688-1.026,4.875-1.438l0.938,7.062
	l1.438-0.188l-0.938-7.375c1.096-0.399,4.01-1.612,5.188-2.062l1.279,7.814l1.408-0.251l-1.312-8.438
	C47.125,30.763,48.994,30.043,49.665,29.77z M11.79,45.645c1.129-3.173,3.661-5.567,6.313-6c1.344-0.22,4.443-0.986,6.25-1.375
	c0.294,2.496,0.249,11.194-0.125,15.125l-13.625,0.062C10.278,51.654,11.307,47.002,11.79,45.645z M75.603,57.395L10.29,57.333
	l0.188-2.624l65.125,0.187V57.395z"/>
</svg>
