<?xml version="1.0" encoding="utf-8"?>
<!-- Generator: Adobe Illustrator 17.0.0, SVG Export Plug-In . SVG Version: 6.00 Build 0)  -->
<!DOCTYPE svg PUBLIC "-//W3C//DTD SVG 1.1//EN" "http://www.w3.org/Graphics/SVG/1.1/DTD/svg11.dtd">
<svg version="1.1" id="Layer_1" xmlns="http://www.w3.org/2000/svg" xmlns:xlink="http://www.w3.org/1999/xlink" x="0px" y="0px"
	 width="25.512px" height="28.648px" viewBox="0 0 25.512 28.648" enable-background="new 0 0 25.512 28.648" xml:space="preserve">
<path fill="#FFE600" d="M20.39,15.341L15.816,5.005c-0.309-0.691-0.892-1.187-1.585-1.348l2.844,13.707L20.39,15.341z"/>
<path fill="#FFE600" d="M5.838,1.265c0-1.925,1.439-3.486,3.214-3.486s3.214,1.561,3.214,3.486v1.333h0.842L12.69-0.353
	c-0.309-2.18-2.188-3.674-4.198-3.339C6.903-3.427,5.658-2.076,5.413-0.353L4.995,2.598h0.842L5.838,1.265L5.838,1.265z"/>
<path fill="#FFE600" d="M11.348,1.265c0-1.375-1.027-2.491-2.296-2.491c-1.268,0-2.296,1.115-2.296,2.491v1.564l2.296,1.66
	l2.296-1.66V1.265z"/>
<path fill="#FFE600" d="M3.873,3.655C3.182,3.815,2.598,4.313,2.29,5.002l-4.576,10.339l3.315,2.022L3.873,3.655z"/>
<path fill="#FFE600" d="M11.946,3.593l-0.609,0.441c0.004,0.019,0.008,0.039,0.011,0.058V7.08c0,0.275-0.206,0.498-0.459,0.498
	c-0.253,0-0.459-0.222-0.459-0.498V4.691L9.512,5.355V24.01c2.622-0.022,5.225-0.468,7.726-1.325l-3.96-19.09h-1.332
	C11.946,3.595,11.946,3.593,11.946,3.593z M10.888,9.071c0.253,0,0.459,0.222,0.459,0.498c0,0.275-0.206,0.498-0.459,0.498
	c-0.253,0-0.458-0.223-0.458-0.499C10.43,9.293,10.635,9.071,10.888,9.071z M10.888,12.059c0.253,0,0.459,0.222,0.459,0.498
	c0,0.275-0.206,0.498-0.459,0.498c-0.253,0-0.459-0.222-0.459-0.498C10.43,12.283,10.635,12.059,10.888,12.059z M10.888,15.048
	c0.253,0,0.459,0.222,0.459,0.498c0,0.275-0.206,0.498-0.459,0.498c-0.253,0-0.459-0.222-0.459-0.498
	C10.43,15.27,10.635,15.048,10.888,15.048z M10.888,18.036c0.253,0,0.459,0.222,0.459,0.498c0,0.275-0.206,0.498-0.459,0.498
	c-0.253,0-0.459-0.222-0.459-0.498C10.43,18.259,10.635,18.036,10.888,18.036z M11.362,23.008c-0.158,0.006-0.316,0.008-0.474,0.008
	c-0.253,0-0.459-0.222-0.459-0.498s0.206-0.498,0.459-0.498c0.149,0,0.296-0.003,0.445-0.008c0.006,0,0.01,0,0.015,0
	c0.253,0.003,0.457,0.229,0.453,0.505C11.799,22.78,11.607,22.996,11.362,23.008z M15.798,21.574
	c0.081,0.261-0.049,0.542-0.289,0.63l0,0c-0.734,0.265-1.486,0.467-2.249,0.603c-0.025,0.004-0.05,0.007-0.075,0.007
	c-0.253-0.001-0.459-0.225-0.457-0.5c0.001-0.242,0.163-0.449,0.384-0.489c0.714-0.128,1.419-0.317,2.107-0.566
	c0.24-0.088,0.499,0.053,0.58,0.313C15.798,21.572,15.798,21.572,15.798,21.574L15.798,21.574z"/>
<path fill="#FFE600" d="M7.675,7.079c0,0.275-0.206,0.498-0.459,0.498c-0.253,0-0.459-0.222-0.459-0.498V4.09
	C6.76,4.071,6.763,4.052,6.768,4.032L6.16,3.591H4.83l-3.96,19.09c2.499,0.856,5.104,1.304,7.726,1.325V5.351l-0.92-0.664
	L7.675,7.079C7.676,7.079,7.675,7.079,7.675,7.079z M7.216,23.017c-1.571,0-3.13-0.274-4.619-0.813L2.479,22.16
	c-0.239-0.09-0.367-0.374-0.284-0.634c0.082-0.256,0.338-0.395,0.575-0.311l0.118,0.043c1.396,0.505,2.856,0.762,4.328,0.762
	c0.253,0,0.459,0.222,0.459,0.498C7.675,22.794,7.469,23.017,7.216,23.017z"/>
</svg>
