<?xml version="1.0" encoding="utf-8"?>
<!-- Generator: Adobe Illustrator 17.0.0, SVG Export Plug-In . SVG Version: 6.00 Build 0)  -->
<!DOCTYPE svg PUBLIC "-//W3C//DTD SVG 1.1//EN" "http://www.w3.org/Graphics/SVG/1.1/DTD/svg11.dtd">
<svg version="1.1" id="Layer_1" xmlns="http://www.w3.org/2000/svg" xmlns:xlink="http://www.w3.org/1999/xlink" x="0px" y="0px"
	 width="85.04px" height="85.04px" viewBox="0 0 85.04 85.04" enable-background="new 0 0 85.04 85.04" xml:space="preserve">
<g>
	<g>
		<path fill="#484747" d="M57.991,65.466c-0.394,0-0.8-0.018-1.223-0.056c-5.593-0.499-7.106-6.493-6.655-11.936
			c0.034-0.417,0.074-0.846,0.116-1.289c0.379-4.072,0.851-9.14-1.782-16.591c-1.024-2.898-0.702-7.975,1.913-11.675
			c1.509-2.136,4.396-4.683,9.578-4.686c4.925,0,10.835,2.968,11.078,17.105l0.002,0.114c0.037,2.058,0.119,12.654-1.898,19.227
			l-0.056,0.185C66.684,63.8,61.729,65.466,57.991,65.466z M59.947,21.234c-3.481,0.002-6.155,1.294-7.954,3.84
			c-2.147,3.037-2.53,7.396-1.661,9.854c2.779,7.865,2.264,13.4,1.887,17.442c-0.041,0.437-0.08,0.858-0.114,1.268
			c-0.128,1.55-0.497,9.304,4.84,9.779c0.361,0.032,0.708,0.048,1.044,0.048c4.45,0,7.531-2.751,9.157-8.176l0.059-0.196
			c1.928-6.283,1.847-16.601,1.811-18.605l-0.002-0.115C68.843,26.328,65.792,21.234,59.947,21.234z"/>
	</g>
	<g>
		<path fill="#484747" d="M51.506,42.809c-0.068,0-0.136-0.014-0.199-0.041c-0.122-0.054-0.218-0.152-0.266-0.276
			c-0.189-0.481-1.1-2.945-0.478-4.135c0.176-0.336,0.458-0.559,0.818-0.643c4.968-1.18,6.472-7.601,6.487-7.665
			c0.052-0.227,0.254-0.39,0.488-0.39h1.025c0.227,0,0.425,0.152,0.483,0.372c0.009,0.034,0.922,3.436,2.331,5.115
			c2.832,3.369,7.787,3.479,7.837,3.479c0.273,0.004,0.492,0.227,0.493,0.5c0,0.033,0,0.823-0.07,1.629
			c-0.085,0.988-0.238,2.043-0.981,2.043c-5.798,0-9.281-3.538-10.462-4.984c-2.1,2.872-7.096,4.872-7.322,4.961
			C51.63,42.797,51.568,42.809,51.506,42.809z M58.978,36.439c0.167,0,0.323,0.084,0.417,0.224c0.034,0.051,3.432,5.036,9.882,5.133
			c0.118-0.342,0.216-1.243,0.241-2.198c-1.417-0.115-5.489-0.714-8.09-3.809c-1.276-1.521-2.137-4.155-2.426-5.13h-0.261
			c-0.425,1.514-2.257,6.87-7.13,8.027c-0.066,0.016-0.115,0.043-0.163,0.134c-0.26,0.497,0.014,1.812,0.349,2.822
			c1.39-0.612,5.43-2.552,6.743-4.943c0.084-0.152,0.242-0.251,0.417-0.258C58.964,36.439,58.971,36.439,58.978,36.439z"/>
	</g>
	<g>
		<path fill="#484747" d="M29.061,65.085c-3.731,0-8.679-1.662-11.068-9.581l-0.057-0.188c-2.027-6.573-1.96-17.17-1.925-19.227
			l0.002-0.109c0.221-14.147,6.133-17.121,11.054-17.124c5.188,0,8.075,2.543,9.587,4.677c2.618,3.695,2.946,8.771,1.927,11.669
			c-2.622,7.453-2.143,12.521-1.758,16.592c0.042,0.443,0.083,0.873,0.118,1.289c0.458,5.442-1.046,11.438-6.639,11.945
			C29.873,65.066,29.46,65.085,29.061,65.085z M27.078,20.855c-5.863,0.004-8.91,5.103-9.066,15.155l-0.002,0.11
			c-0.033,2.005-0.102,12.322,1.836,18.605l0.061,0.199c1.633,5.414,4.713,8.159,9.154,8.159c0.341,0,0.693-0.017,1.059-0.05
			c5.337-0.483,4.957-8.236,4.826-9.785c-0.034-0.41-0.074-0.832-0.116-1.269c-0.382-4.041-0.905-9.576,1.862-17.444
			c0.865-2.459,0.477-6.815-1.672-9.85C33.22,22.145,30.548,20.855,27.078,20.855z"/>
	</g>
	<g>
		<path fill="#484747" d="M17.564,42.432L17.564,42.432c-0.342,0-1.054,0-1.056-3.672c0-0.272,0.219-0.495,0.492-0.5
			c0.05-0.001,5.014-0.125,7.832-3.491c1.407-1.679,2.314-5.082,2.324-5.116c0.058-0.22,0.256-0.373,0.482-0.373l1.025-0.002l0,0
			c0.233,0,0.436,0.161,0.488,0.389c0.015,0.064,1.54,6.486,6.498,7.656c0.359,0.084,0.643,0.307,0.819,0.643
			c0.625,1.188-0.283,3.654-0.472,4.137c-0.048,0.124-0.144,0.224-0.266,0.276c-0.122,0.054-0.261,0.056-0.383,0.007
			c-0.227-0.089-5.225-2.083-7.328-4.952C26.839,38.881,23.36,42.427,17.564,42.432z M17.514,39.231
			c0.026,0.955,0.127,1.858,0.245,2.198c6.45-0.105,9.841-5.097,9.875-5.147c0.097-0.146,0.266-0.252,0.438-0.223
			c0.175,0.007,0.333,0.104,0.417,0.258c1.318,2.392,5.358,4.326,6.749,4.936c0.334-1.012,0.606-2.328,0.345-2.825
			c-0.048-0.091-0.098-0.118-0.163-0.134c-4.874-1.149-6.714-6.504-7.142-8.017h-0.261c-0.287,0.976-1.145,3.611-2.419,5.133
			C23.002,38.511,18.931,39.114,17.514,39.231z"/>
	</g>
</g>
</svg>
