<?xml version="1.0" encoding="utf-8"?>
<!-- Generator: Adobe Illustrator 17.0.0, SVG Export Plug-In . SVG Version: 6.00 Build 0)  -->
<!DOCTYPE svg PUBLIC "-//W3C//DTD SVG 1.1//EN" "http://www.w3.org/Graphics/SVG/1.1/DTD/svg11.dtd">
<svg version="1.1" id="Layer_1" xmlns="http://www.w3.org/2000/svg" xmlns:xlink="http://www.w3.org/1999/xlink" x="0px" y="0px"
	 width="85.04px" height="85.04px" viewBox="0 0 85.04 85.04" enable-background="new 0 0 85.04 85.04" xml:space="preserve">
<g>
	<g>
		<path fill="#484747" d="M42.867,73.04H28.869c-1.247,0-2.732-0.624-2.732-3.598l0.621-36.573c0.01-0.552,0.464-0.973,1.017-0.983
			c0.552,0.01,0.992,0.465,0.983,1.017l-0.621,36.556c0,1.581,0.389,1.581,0.732,1.581h13.998c0.552,0,1,0.448,1,1
			S43.419,73.04,42.867,73.04z"/>
	</g>
	<g>
		<path fill="#484747" d="M17.989,69.271c-0.247,0-0.509-0.03-0.787-0.092l-5.198-1.05c-2.466-0.545-2.071-2.331-1.81-3.514
			l7.132-40.619c2.046-4.955,11.472-6.917,12.893-7.063l5.073-0.797c0.544-0.088,1.057,0.287,1.143,0.833
			c0.086,0.545-0.287,1.057-0.833,1.143l-5.246,0.813c-1.254,0.087-9.507,2.088-11.142,5.741l-7.06,40.338
			c-0.063,0.29-0.188,0.857-0.165,1.055c0.027,0.001,0.146,0.052,0.428,0.114l5.198,1.05c0.518,0.115,0.772,0.172,1.062-1.129
			l8.107-33.442c0.13-0.537,0.673-0.867,1.207-0.736c0.537,0.13,0.867,0.67,0.736,1.207l-8.103,33.424
			C20.225,68.354,19.338,69.271,17.989,69.271z"/>
	</g>
	<g>
		<path fill="#484747" d="M42.867,72.04"/>
	</g>
	<g>
		<path fill="#484747" d="M42.867,72.04"/>
	</g>
	<g>
		<path fill="#484747" d="M56.864,73.04H42.867c-0.552,0-1-0.448-1-1s0.448-1,1-1h13.997c0.343,0,0.731,0,0.731-1.598l-1.618-36.511
			c-0.024-0.552,0.403-1.019,0.955-1.043c0.549-0.023,1.019,0.403,1.044,0.955l1.619,36.556C59.596,72.416,58.11,73.04,56.864,73.04
			z"/>
	</g>
	<g>
		<path fill="#484747" d="M67.739,69.273c-1.343,0-2.232-0.919-2.637-2.746l-9.09-33.378l1.93-0.525l9.102,33.424
			c0.3,1.345,0.549,1.29,1.055,1.178l5.234-1.057c0.354-0.079,0.45-0.155,0.454-0.158c-0.007-0.088-0.143-0.702-0.201-0.964
			l-7.067-40.382c-1.637-3.654-9.889-5.654-11.169-5.742l-0.124-0.011l-5.557-0.864l0.308-1.977l5.537,0.861
			c1.419,0.146,10.847,2.108,12.895,7.063l0.061,0.209l7.078,40.453c0.178,0.798,0.294,1.441,0.091,2.055
			c-0.319,0.961-1.231,1.266-1.891,1.412l-5.233,1.057C68.24,69.243,67.981,69.273,67.739,69.273z"/>
	</g>
	<g>
		<path fill="#484747" d="M42.867,72.04"/>
	</g>
	<g>
		<path fill="#484747" d="M42.867,72.04"/>
	</g>
	<g>
		<rect x="40.312" y="22.097" fill="#484747" width="1" height="49.092"/>
	</g>
	<g>
		<rect x="44.396" y="22.097" fill="#484747" width="1" height="49.092"/>
	</g>
	<g>
		<circle fill="#484747" cx="42.849" cy="25.149" r="0.636"/>
	</g>
	<g>
		<circle fill="#484747" cx="42.849" cy="35.15" r="0.636"/>
	</g>
	<g>
		<circle fill="#484747" cx="42.849" cy="45.151" r="0.636"/>
	</g>
	<g>
		<circle fill="#484747" cx="42.849" cy="55.152" r="0.636"/>
	</g>
	<g>
		<circle fill="#484747" cx="42.849" cy="65.153" r="0.636"/>
	</g>
	<g>
		<path fill="#484747" d="M43.082,15.573c-2.472,0-4.357-0.171-4.386-0.173l0.093-0.996c0.041,0.004,4.195,0.379,8.219,0
			l0.094,0.995C45.722,15.529,44.327,15.573,43.082,15.573z"/>
	</g>
	<g>
		<path fill="#484747" d="M43.001,13.774c-2.923,0-5.039-0.213-5.07-0.216l0.103-0.995c0.046,0.005,4.711,0.474,9.736,0l0.094,0.995
			C46.147,13.72,44.472,13.774,43.001,13.774z"/>
	</g>
	<g>
		<path fill="#484747" d="M39.506,23.216c-0.073,0-0.147-0.016-0.215-0.049c-0.111-0.053-2.725-1.366-4.055-7.71
			c-0.034-0.163,0.015-0.332,0.13-0.451l2.227-2.295c0.128-0.131,0.318-0.183,0.494-0.133c0.177,0.049,0.312,0.192,0.353,0.371
			c0.011,0.047,1.105,4.738,4.694,7.149c0.139,0.093,0.222,0.25,0.221,0.417s-0.085,0.323-0.225,0.415l-3.349,2.202
			C39.698,23.188,39.602,23.216,39.506,23.216z M36.269,15.511c0.997,4.523,2.644,6.15,3.236,6.606l2.471-1.625
			c-2.575-2.024-3.798-5.005-4.27-6.463L36.269,15.511z"/>
	</g>
	<g>
		<path fill="#484747" d="M46.226,23.216c-0.096,0-0.192-0.028-0.275-0.082l-3.348-2.203c-0.14-0.092-0.224-0.248-0.225-0.415
			c-0.001-0.167,0.082-0.324,0.221-0.417c3.589-2.411,4.684-7.102,4.694-7.149c0.041-0.179,0.176-0.322,0.353-0.371
			c0.176-0.05,0.367,0.002,0.494,0.133l2.226,2.295c0.116,0.119,0.165,0.288,0.13,0.451c-1.329,6.344-3.944,7.657-4.055,7.71
			C46.373,23.2,46.3,23.216,46.226,23.216z M43.757,20.493l2.47,1.625c0.593-0.457,2.24-2.083,3.236-6.606l-1.437-1.481
			C47.555,15.488,46.332,18.469,43.757,20.493z"/>
	</g>
	<g>
		<circle fill="#484747" cx="13.599" cy="64.371" r="0.636"/>
	</g>
	<g>
		<circle fill="#484747" cx="71.974" cy="64.518" r="0.636"/>
	</g>
	<g>
		
			<rect x="12.32" y="61.668" transform="matrix(0.9828 0.1848 -0.1848 0.9828 11.7646 -1.8935)" fill="#484747" width="7.441" height="1"/>
	</g>
	<g>
		
			<rect x="68.937" y="58.449" transform="matrix(0.1847 0.9828 -0.9828 0.1847 117.712 -17.5561)" fill="#484747" width="1" height="7.441"/>
	</g>
	<g>
		<path fill="#484747" d="M51.995,31.396h-3.666c-0.276,0-0.5-0.224-0.5-0.5s0.224-0.5,0.5-0.5h3.666c0.276,0,0.5,0.224,0.5,0.5
			S52.271,31.396,51.995,31.396z"/>
	</g>
</g>
</svg>
