<?xml version="1.0" encoding="utf-8"?>
<!-- Generator: Adobe Illustrator 17.0.0, SVG Export Plug-In . SVG Version: 6.00 Build 0)  -->
<!DOCTYPE svg PUBLIC "-//W3C//DTD SVG 1.1//EN" "http://www.w3.org/Graphics/SVG/1.1/DTD/svg11.dtd">
<svg version="1.1" id="Layer_1" xmlns="http://www.w3.org/2000/svg" xmlns:xlink="http://www.w3.org/1999/xlink" x="0px" y="0px"
	 width="85.04px" height="85.04px" viewBox="0 0 85.04 85.04" enable-background="new 0 0 85.04 85.04" xml:space="preserve">
<g>
	<g>
		<path fill="#484747" d="M54.556,73.956c-7.447,0-7.762-0.316-8.066-0.622c-0.288-0.292-0.61-0.619-3.992-32.188
			c-3.046,31.408-3.128,31.669-3.165,31.785c-0.254,0.798-0.307,0.964-8.478,0.964c-7.144,0-7.24-0.188-7.56-0.808
			c-0.389-0.752-0.078-27.814-0.074-28.088c0.226-18.553,0.674-28.935,1.333-30.86c0.053-0.156,0.216-0.63,0.684-0.847
			c1.12-0.519,4.632-0.721,12.529-0.721l4.96,0.009l5.063-0.009c9.716,0,11.962,0.285,12.708,0.811
			c0.609,0.43,1.09,0.769,1.588,30.128c0.201,11.864,0.372,28.834,0.295,29.286C62.225,73.711,62.183,73.956,54.556,73.956z
			 M48.034,71.777c1.012,0.096,3.41,0.179,6.522,0.179c2.808,0,4.878-0.068,5.866-0.149c0.065-6.597-0.519-52.033-1.315-56.86
			c-1.106-0.24-4.922-0.376-11.317-0.376l-5.063,0.009l-4.96-0.009c-6.332,0-10.156,0.148-11.388,0.44
			c-1.087,4.536-1.486,49.889-1.246,56.762c0.89,0.062,2.732,0.122,5.723,0.122c3.072,0,5.515-0.064,6.62-0.139
			c0.468-4.396,2.747-27.837,3.981-40.603c0.05-0.511,0.478-0.901,0.991-0.903c0.001,0,0.003,0,0.004,0
			c0.511,0,0.941,0.386,0.995,0.895C45.009,45.94,47.416,67.971,48.034,71.777z"/>
	</g>
	<g>
		<path fill="#484747" d="M25.801,24.557c-0.544,0-1.078-0.104-1.593-0.335c-0.251-0.113-0.364-0.41-0.25-0.661
			c0.114-0.252,0.409-0.365,0.662-0.251c3.84,1.733,9.707-5.985,9.766-6.064c0.166-0.221,0.479-0.266,0.7-0.099
			c0.221,0.166,0.265,0.479,0.1,0.7C34.954,18.153,30.085,24.557,25.801,24.557z"/>
	</g>
	<g>
		<path fill="#484747" d="M59.33,24.557c-4.285,0-9.152-6.403-9.383-6.71c-0.166-0.221-0.121-0.534,0.1-0.7
			c0.221-0.167,0.534-0.121,0.7,0.099c0.059,0.078,5.921,7.797,9.765,6.064c0.253-0.116,0.547-0.001,0.662,0.251
			c0.113,0.251,0.001,0.548-0.25,0.661C60.409,24.453,59.874,24.557,59.33,24.557z"/>
	</g>
	<g>
		
			<rect x="33.361" y="21.872" transform="matrix(0.0129 0.9999 -0.9999 0.0129 64.061 -20.1484)" fill="#484747" width="17.749" height="1"/>
	</g>
	<g>
		<path fill="#484747" d="M44.781,15.627c0,0.445-0.362,0.806-0.808,0.806l0,0c-0.442,0-0.802-0.36-0.802-0.806l0,0
			c0-0.444,0.359-0.805,0.802-0.805l0,0C44.419,14.823,44.781,15.183,44.781,15.627L44.781,15.627z"/>
	</g>
	<g>
		<rect x="25.091" y="16.744" fill="#484747" width="34.947" height="1"/>
	</g>
	<g>
		<path fill="#484747" d="M31.414,17.744c-0.276,0-0.5-0.224-0.5-0.5v-3.121c0-0.276,0.224-0.5,0.5-0.5s0.5,0.224,0.5,0.5v3.121
			C31.914,17.52,31.69,17.744,31.414,17.744z"/>
	</g>
	<g>
		<path fill="#484747" d="M53.039,17.744c-0.276,0-0.5-0.224-0.5-0.5v-3.121c0-0.276,0.224-0.5,0.5-0.5s0.5,0.224,0.5,0.5v3.121
			C53.539,17.52,53.315,17.744,53.039,17.744z"/>
	</g>
</g>
</svg>
