<?xml version="1.0" encoding="utf-8"?>
<!-- Generator: Adobe Illustrator 17.0.0, SVG Export Plug-In . SVG Version: 6.00 Build 0)  -->
<!DOCTYPE svg PUBLIC "-//W3C//DTD SVG 1.1//EN" "http://www.w3.org/Graphics/SVG/1.1/DTD/svg11.dtd">
<svg version="1.1" id="Layer_1" xmlns="http://www.w3.org/2000/svg" xmlns:xlink="http://www.w3.org/1999/xlink" x="0px" y="0px"
	 width="85.04px" height="85.04px" viewBox="0 0 85.04 85.04" enable-background="new 0 0 85.04 85.04" xml:space="preserve">
<g>
	<g>
		<path fill="#484747" d="M67.901,37.299c0.904-5.026,0.666-11.661-1.566-14.253c-2.105-2.444-8.032-4.65-9.617-5.209l-2.365-4.729
			c-0.52-1.04-1.566-1.687-2.729-1.687H33.416c-1.163,0-2.209,0.646-2.729,1.687l-2.365,4.729c-1.585,0.559-7.513,2.765-9.617,5.209
			c-2.232,2.592-2.47,9.227-1.566,14.253c-0.272,1.161-1.442,6.685-0.374,11.531c-0.061,0.934-0.381,5.973-0.256,7.822
			c0.104,1.538,0.579,2.875,1.363,3.918l-0.12,3.804c-0.054,1.201,0.605,2.324,1.68,2.864c0.012,0.006,0.025,0.012,0.037,0.018
			l7.534,3.389v0.961c0,1.11,0.903,2.013,2.013,2.013h27.008c1.11,0,2.013-0.903,2.013-2.013v-0.961l7.534-3.389
			c0.013-0.006,0.025-0.012,0.037-0.018c1.078-0.541,1.737-1.668,1.68-2.876l-0.19-3.702c0.826-1.056,1.326-2.425,1.433-4.009
			c0.124-1.848-0.195-6.888-0.256-7.822C69.343,43.984,68.172,38.459,67.901,37.299z M65.993,36.897l-5.296,2.2
			c-0.141-0.644-0.331-1.298-0.582-1.955v-3.966c0.002-0.186,0.113-4.437,5.211-8.135C66.484,27.346,66.798,32.37,65.993,36.897z
			 M64.046,23.565c-5.809,4.291-5.879,9.383-5.879,9.606v3.181H43.494v-9.656c5.389-1.23,11.12-5.656,12.731-6.969
			C58.187,20.425,62.025,21.983,64.046,23.565z M58.444,48.688c0.424,1.372,1.269,4.862,0.281,8.44H43.494v-8.44H58.444z
			 M43.494,46.74V38.3h14.964c1.189,3.561,0.393,7.063-0.019,8.44C58.439,46.74,43.494,46.74,43.494,46.74z M52.629,14.042
			c0.003-0.004,0.005-0.007,0.008-0.011l2.168,4.336c-1.679,1.341-6.687,5.114-11.311,6.326v-2.412
			C44.892,21.375,49.097,18.459,52.629,14.042z M28.815,19.728c1.611,1.312,7.341,5.739,12.73,6.969v9.656H26.873v-3.181
			c0-0.224-0.071-5.315-5.879-9.606C23.014,21.985,26.852,20.426,28.815,19.728z M19.715,25.042
			c5.097,3.697,5.209,7.949,5.211,8.129v3.972c-0.252,0.657-0.441,1.311-0.582,1.955l-5.296-2.2
			C18.242,32.37,18.556,27.346,19.715,25.042z M18.8,38.903l5.248,2.18c-0.247,3.107,0.498,5.698,0.815,6.629
			c-0.171,0.497-0.47,1.469-0.689,2.741l-5.563-2.311C17.929,44.734,18.438,40.885,18.8,38.903z M18.453,56.52
			c-0.086-1.283,0.07-4.41,0.177-6.261l5.308,2.205c-0.108,1.712,0.011,3.698,0.655,5.709c-0.108,0.617-0.379,2.257-0.494,3.751
			l-3.045-1.265C18.975,59.796,18.532,57.696,18.453,56.52z M20.29,65.489c-0.381-0.199-0.613-0.601-0.592-1.031
			c0-0.005,0-0.01,0-0.016l0.071-2.243c0.174,0.093,0.351,0.181,0.536,0.259l3.799,1.578c0.182,1.34,0.772,2.578,1.708,3.553
			c0.298,0.31,0.622,0.584,0.968,0.82L20.29,65.489z M41.546,71.671h-12.53c-0.036,0-0.065-0.029-0.065-0.065v-2.272
			c0.409,0.085,0.83,0.13,1.259,0.13h11.337L41.546,71.671L41.546,71.671z M41.546,67.516H30.21c-2.365,0-4.218-1.921-4.218-4.373
			c0-1.238,0.259-3.04,0.424-4.067h15.13C41.546,59.076,41.546,67.516,41.546,67.516z M41.546,57.128H26.315
			c-0.983-3.565-0.14-7.065,0.282-8.44h14.949V57.128z M41.546,46.74H26.601c-0.412-1.378-1.207-4.88-0.019-8.44h14.964V46.74z
			 M41.546,24.693c-4.619-1.212-9.631-4.985-11.311-6.326l2.168-4.335c0.003,0.004,0.005,0.007,0.008,0.011
			c3.533,4.416,7.737,7.333,9.136,8.239L41.546,24.693L41.546,24.693z M34.378,13.369h16.285c-3.16,3.771-6.827,6.354-8.143,7.22
			C41.205,19.724,37.544,17.147,34.378,13.369z M56.089,71.606c0,0.036-0.029,0.065-0.065,0.065h-12.53v-2.207h11.337
			c0.429,0,0.85-0.044,1.259-0.13C56.089,69.334,56.089,71.606,56.089,71.606z M54.831,67.516H43.494v-8.44h15.13
			c0.166,1.027,0.424,2.828,0.424,4.067C59.048,65.595,57.196,67.516,54.831,67.516z M64.75,65.489l-6.491,2.92
			c0.346-0.237,0.67-0.51,0.968-0.82c0.936-0.975,1.526-2.213,1.708-3.553l3.799-1.578c0.17-0.071,0.333-0.151,0.493-0.235
			l0.114,2.235C65.362,64.888,65.13,65.291,64.75,65.489z M66.587,56.52c-0.079,1.175-0.522,3.276-2.6,4.139l-3.045,1.265
			c-0.115-1.494-0.387-3.134-0.495-3.751c0.644-2.011,0.763-3.997,0.655-5.709l5.308-2.205C66.518,52.11,66.674,55.237,66.587,56.52
			z M66.428,48.143l-5.563,2.311c-0.219-1.272-0.518-2.244-0.689-2.741c0.317-0.932,1.062-3.522,0.815-6.629l5.249-2.18
			C66.602,40.885,67.111,44.734,66.428,48.143z"/>
	</g>
</g>
</svg>
