<?xml version="1.0" encoding="utf-8"?>
<!-- Generator: Adobe Illustrator 17.0.0, SVG Export Plug-In . SVG Version: 6.00 Build 0)  -->
<!DOCTYPE svg PUBLIC "-//W3C//DTD SVG 1.1//EN" "http://www.w3.org/Graphics/SVG/1.1/DTD/svg11.dtd">
<svg version="1.1" id="Layer_1" xmlns="http://www.w3.org/2000/svg" xmlns:xlink="http://www.w3.org/1999/xlink" x="0px" y="0px"
	 width="85.04px" height="85.04px" viewBox="0 0 85.04 85.04" enable-background="new 0 0 85.04 85.04" xml:space="preserve">
<g>
	<g>
		<path fill="#484747" d="M54.288,60.417c-8.466,0-8.767-0.302-9.084-0.622c-0.224-0.226-0.547-0.555-2.976-11.934
			c-1.088,5.861-2.104,11.283-2.182,11.53c-0.26,0.817-0.307,0.964-9.544,0.964c-8.078,0-8.166-0.171-8.494-0.808
			c-0.57-1.103,0.886-30.109,2.114-33.7c0.134-0.394,0.35-0.873,0.828-1.095c1.12-0.519,4.632-0.721,12.528-0.721l4.96,0.009
			l5.063-0.009c9.716,0,11.962,0.285,12.708,0.811c0.551,0.389,1.071,0.756,2.087,17.585c0.36,5.974,0.88,16.341,0.797,16.829
			C62.934,60.194,62.896,60.417,54.288,60.417z M46.653,58.222c1.05,0.104,3.879,0.195,7.634,0.195c3.294,0,5.695-0.072,6.811-0.157
			c-0.141-4.818-1.384-28.699-2.216-31.838c-1.02-0.249-4.858-0.39-11.38-0.39l-5.063,0.009l-4.96-0.009
			c-6.485,0-10.338,0.155-11.473,0.461c-1.115,2.896-2.216,26.764-2.151,31.734c1.076,0.07,3.388,0.128,6.647,0.128
			c3.691,0,6.569-0.07,7.753-0.149c0.43-2.229,1.912-10.192,2.926-15.675c0.087-0.47,0.494-0.812,0.972-0.818
			c0.004,0,0.008,0,0.011,0c0.473,0,0.882,0.332,0.979,0.796C44.244,47.788,46.061,56.193,46.653,58.222z"/>
	</g>
	<g>
		<path fill="#484747" d="M24.079,36.389l-0.036-1c3.498-0.127,5.559-7.096,6.058-9.77l0.983,0.184
			C31.004,26.228,29.085,36.206,24.079,36.389z"/>
	</g>
	<g>
		<path fill="#484747" d="M60.925,36.389c-5.005-0.183-6.924-10.161-7.004-10.586l0.983-0.184c0.018,0.096,1.847,9.616,6.057,9.77
			L60.925,36.389z"/>
	</g>
	<g>
		
			<rect x="33.073" y="33.334" transform="matrix(0.0129 0.9999 -0.9999 0.0129 75.2372 -8.5468)" fill="#484747" width="17.75" height="1"/>
	</g>
	<g>
		<path fill="#484747" d="M44.835,28.396c0,0.445-0.362,0.805-0.808,0.805l0,0c-0.442,0-0.802-0.359-0.802-0.805l0,0
			c0-0.445,0.359-0.805,0.802-0.805l0,0C44.472,27.592,44.835,27.951,44.835,28.396L44.835,28.396z"/>
	</g>
	<g>
		<rect x="22.873" y="55.158" fill="#484747" width="16.696" height="1"/>
	</g>
	<g>
		<rect x="44.835" y="55.158" fill="#484747" width="16.695" height="1"/>
	</g>
</g>
</svg>
