<?xml version="1.0" encoding="utf-8"?>
<!-- Generator: Adobe Illustrator 17.0.0, SVG Export Plug-In . SVG Version: 6.00 Build 0)  -->
<!DOCTYPE svg PUBLIC "-//W3C//DTD SVG 1.1//EN" "http://www.w3.org/Graphics/SVG/1.1/DTD/svg11.dtd">
<svg version="1.1" id="Layer_1" xmlns="http://www.w3.org/2000/svg" xmlns:xlink="http://www.w3.org/1999/xlink" x="0px" y="0px"
	 width="85.04px" height="85.04px" viewBox="0 0 85.04 85.04" enable-background="new 0 0 85.04 85.04" xml:space="preserve">
<g>
	<g>
		<path fill="#484747" d="M41.801,69.35H27.159c-2.357,0-2.357-2.268-2.357-3.357L24.588,36.13c-0.003-0.376,0.206-0.722,0.54-0.895
			c0.281-0.151,7.01-3.931,4.809-18.082c-0.045-0.288,0.039-0.582,0.229-0.804s0.467-0.35,0.759-0.35h4.648
			c0.266,0,0.521,0.105,0.708,0.294c0.188,0.188,0.292,0.443,0.292,0.709c0,0.077,0.02,7.806,3.178,10.971
			c0.852,0.854,1.836,1.269,3.007,1.269v2c-1.707,0-3.196-0.625-4.426-1.858C35.312,26.355,34.717,20.381,34.6,18h-2.525
			c1.61,12.611-3.711,17.437-5.486,18.672l0.209,29.313c0,0.326,0,1.174,0.142,1.343l0,0c0.005,0,0.075,0.021,0.215,0.021h14.643
			v2.001C41.798,69.35,41.801,69.35,41.801,69.35z"/>
	</g>
	<g>
		<path fill="#484747" stroke="#231F20" stroke-width="2" stroke-linejoin="round" stroke-miterlimit="10" d="M35.534,17"/>
	</g>
	<g>
		<path fill="#484747" d="M58.36,69.35H41.801v-2H58.36c0.142,0,0.212-0.022,0.227-0.03c0.13-0.159,0.13-1.008,0.13-1.327
			l0.211-29.32c-1.774-1.235-7.097-6.061-5.487-18.672h-2.525c-0.117,2.381-0.712,8.355-3.731,11.384
			c-1.229,1.233-2.718,1.858-4.424,1.858v-2c1.171,0,2.154-0.415,3.006-1.269c3.158-3.164,3.178-10.893,3.178-10.971
			c0-0.266,0.104-0.521,0.292-0.709C49.423,16.105,49.678,16,49.944,16h4.648c0.292,0,0.569,0.128,0.759,0.35
			s0.274,0.516,0.229,0.804c-2.2,14.151,4.53,17.931,4.817,18.085c0.327,0.175,0.537,0.521,0.534,0.892L60.716,66
			C60.717,67.082,60.717,69.35,58.36,69.35z"/>
	</g>
	<g>
		<path fill="#484747" stroke="#231F20" stroke-width="2" stroke-linejoin="round" stroke-miterlimit="10" d="M49.985,17"/>
	</g>
	<g>
		<rect x="25.801" y="65.492" fill="#484747" width="33.91" height="1"/>
	</g>
	<g>
		<g>
			<path fill="#484747" d="M38.467,41.46c1.072-0.848,2.416-1.272,4.032-1.272s2.96,0.425,4.032,1.272
				c1.072,0.848,1.608,1.916,1.608,3.204s-0.6,2.428-1.8,3.42c1.616,1.024,2.424,2.464,2.424,4.319c0,1.44-0.576,2.648-1.728,3.624
				c-1.152,0.977-2.664,1.465-4.536,1.465s-3.384-0.488-4.536-1.465c-1.152-0.976-1.728-2.184-1.728-3.624
				c0-1.855,0.808-3.295,2.424-4.319c-1.2-0.992-1.8-2.132-1.8-3.42C36.859,43.376,37.395,42.308,38.467,41.46z M40.147,54.336
				c0.736,0.472,1.52,0.708,2.352,0.708s1.616-0.236,2.352-0.708s1.104-1.148,1.104-2.028s-0.352-1.56-1.056-2.04
				c-0.705-0.479-1.504-0.72-2.4-0.72s-1.696,0.24-2.4,0.72c-0.704,0.48-1.056,1.16-1.056,2.04S39.411,53.864,40.147,54.336z
				 M40.375,46.704c0.6,0.488,1.308,0.731,2.124,0.731s1.524-0.243,2.124-0.731c0.6-0.488,0.9-1.088,0.9-1.801
				c0-0.711-0.3-1.308-0.9-1.787c-0.6-0.48-1.308-0.721-2.124-0.721s-1.524,0.24-2.124,0.721c-0.6,0.479-0.9,1.076-0.9,1.787
				C39.475,45.616,39.775,46.216,40.375,46.704z"/>
		</g>
	</g>
</g>
</svg>
