<?xml version="1.0" encoding="utf-8"?>
<!-- Generator: Adobe Illustrator 17.0.0, SVG Export Plug-In . SVG Version: 6.00 Build 0)  -->
<!DOCTYPE svg PUBLIC "-//W3C//DTD SVG 1.1//EN" "http://www.w3.org/Graphics/SVG/1.1/DTD/svg11.dtd">
<svg version="1.1" id="Layer_1" xmlns="http://www.w3.org/2000/svg" xmlns:xlink="http://www.w3.org/1999/xlink" x="0px" y="0px"
	 width="85.04px" height="85.04px" viewBox="0 0 85.04 85.04" enable-background="new 0 0 85.04 85.04" xml:space="preserve">
<g>
	<g>
		<path fill="#484747" d="M56.778,70.305H28.415c-2.356,0-2.356-2.267-2.356-3.357l0.736-34.586l-5.014,4.502
			c-0.279,0.28-0.68,0.448-1.121,0.448c-0.993,0-1.846-0.854-2.47-1.478l-5.637-4.865c-0.753-0.75-2.371-2.368-1.054-3.686
			l7.419-7.42c0.495-0.601,5.068-5.909,12.264-5.909h3.649c0.313,0,0.608,0.148,0.797,0.396c0.031,0.042,3.205,4.167,6.774,4.167
			c0.089,0.004,0.191,0.01,0.361,0.01c1.175,0,5.129-0.286,6.675-3.96c0.156-0.371,0.52-0.612,0.922-0.612h3.649
			c7.197,0,11.77,5.309,12.264,5.909l7.418,7.42c0.999,1,0.999,1.636,0.008,2.628l-7.73,6.952c-0.369,0.371-0.714,0.716-1.279,0.716
			s-0.911-0.345-1.311-0.745l-4.982-4.473l0.736,34.564C59.135,68.038,59.135,70.305,56.778,70.305z M28.2,68.283
			c0.006,0,0.076,0.021,0.215,0.021h28.363c0.141,0,0.211-0.022,0.227-0.03c0.13-0.159,0.13-1.007,0.13-1.327l-0.785-36.85
			c-0.008-0.398,0.221-0.764,0.583-0.93c0.361-0.165,0.789-0.101,1.085,0.165l6.675,5.994l7.484-6.73l-7.353-7.354
			c-0.026-0.025-0.051-0.054-0.074-0.082c-0.042-0.052-4.257-5.205-10.74-5.205h-3.013c-2.6,5.06-8.669,4.563-8.67,4.56
			c-0.001,0-0.003,0-0.004,0c-3.786,0-6.97-3.376-7.969-4.56h-3.172c-6.482,0-10.698,5.153-10.74,5.205
			c-0.023,0.028-0.048,0.057-0.074,0.082l-7.297,7.299c0.171,0.293,0.639,0.762,0.833,0.957l5.639,4.866
			c0.25,0.246,0.736,0.732,1.03,0.898l6.602-5.929c0.296-0.266,0.723-0.331,1.085-0.165c0.362,0.166,0.591,0.532,0.583,0.93
			L28.058,66.97C28.059,67.267,28.059,68.115,28.2,68.283L28.2,68.283z"/>
	</g>
	<g>
		<path fill="#484747" d="M34.79,14.954"/>
	</g>
	<g>
		<path fill="#484747" d="M42.906,16.013c-4.556,0-8.042-1.026-8.26-1.091l0.288-0.958c0.078,0.024,7.889,2.316,15.278,0.002
			l0.299,0.954C47.893,15.739,45.257,16.013,42.906,16.013z"/>
	</g>
	<g>
		<path fill="#484747" d="M48.113,39.116c-0.194,0-0.384-0.119-0.467-0.294c-0.149-0.318,0.032-0.537,0.333-0.899
			c0.339-0.409,1.241-1.496,1.086-2.083c-0.018-0.065-0.07-0.263-0.504-0.433c0.011,0.008-0.04,0.003-0.113,0.002
			c-0.338,0-1.246,0.114-2.364,1.165c-0.118,0.111-0.284,0.156-0.441,0.126c-0.159-0.032-0.292-0.14-0.358-0.288
			c-0.076-0.166-0.297-0.481-0.483-0.481c-0.152,0-0.44,0.2-0.791,0.761l-1.239,2.171c-0.093,0.164-0.272,0.261-0.46,0.251
			c-0.189-0.01-0.356-0.125-0.432-0.298c-0.587-1.341-1.553-2.848-2.054-2.951c-0.049,0.032-0.246,0.302-0.341,0.524
			c-0.063,0.149-0.194,0.257-0.351,0.292c-0.158,0.036-0.323-0.008-0.442-0.115c-0.513-0.458-2.388-1.849-2.907-0.942
			c-0.382,0.665,0.529,1.922,1.09,2.499c0.144,0.088,0.239,0.246,0.239,0.427c0,0.279-0.245,0.501-0.509,0.5
			c-0.047,0.003-0.095-0.004-0.142-0.018c-0.234-0.063-5.726-1.593-5.89-5.457c-0.01-0.129-0.189-3.577,7.266-5.64
			c0.287-0.181,0.76,0.014,0.805,0.357c0.031,0.233-0.068,0.454-0.279,0.534c-0.452,0.558-0.96,1.441-0.608,1.758
			c0.762,0.686,1.573,0.857,2.175,0.413c0.431-0.319,0.622-1.681,0.616-2.502l0.07-0.696c0.022-0.211,0.174-0.385,0.38-0.434
			c0.209-0.049,0.421,0.037,0.536,0.214c0.186,0.286,0.311,0.503,0.395,0.669c0.176-0.016,0.363-0.021,0.496-0.001l0.294,0.038
			c0.363-0.632,0.405-0.673,0.453-0.72c0.093-0.092,0.223-0.145,0.354-0.145c0.19,0,0.697,0,0.697,1.911
			c0,0.194,0.235,1.905,1.079,1.905c1.303-0.106,1.506-0.489,1.654-0.769c0.133-0.25,0.329-0.91-0.707-1.676
			c-0.173-0.128-0.26-0.374-0.192-0.579c0.067-0.205,0.294-0.353,0.51-0.353c0.729,0,7.056,1.849,7.509,5.327
			c0.143,1.101-0.221,2.159-1.081,3.146c-1.551,1.781-4.26,2.775-4.875,2.781C48.116,39.116,48.115,39.116,48.113,39.116
			L48.113,39.116z M48.447,34.41c0.211,0,0.341,0.026,0.376,0.034c0.689,0.255,1.073,0.633,1.208,1.142
			c0.181,0.686-0.162,1.432-0.577,2.054c0.915-0.422,2.08-1.114,2.852-2.041c0.615-0.737,0.875-1.504,0.775-2.28
			c-0.258-1.977-3.331-3.438-5.19-4.086c0.271,0.632,0.19,1.244-0.056,1.706c-0.315,0.594-0.823,1.163-2.388,1.293
			c-1.817,0.163-2.228-2.306-2.228-2.898c0-0.018,0-0.04-0.001-0.064c-0.09,0.048-0.192,0.068-0.298,0.053l-0.632-0.083
			c-0.301,0.002-0.593,0.046-0.601,0.047c-0.059,0.009-0.117,0.008-0.175-0.002c-0.071,0.807-0.297,2.007-0.987,2.517
			c-0.982,0.726-2.305,0.546-3.438-0.474c-0.591-0.532-0.54-1.302-0.188-2.06c-5.355,1.801-5.328,4.231-5.327,4.258
			c0.084,1.976,2.081,3.257,3.564,3.94c-0.399-0.715-0.653-1.583-0.219-2.338c0.305-0.532,0.79-0.813,1.402-0.813
			c0.93,0,1.975,0.674,2.57,1.125c0.218-0.288,0.539-0.571,0.956-0.571c0.035,0,0.151,0.012,0.185,0.019
			c0.923,0.191,1.812,1.615,2.347,2.651l0.775-1.358c0.529-0.845,1.065-1.248,1.649-1.248c0.466,0,0.812,0.262,1.044,0.528
			C46.982,34.557,47.944,34.41,48.447,34.41z"/>
	</g>
</g>
</svg>
