<?xml version="1.0" encoding="utf-8"?>
<!-- Generator: Adobe Illustrator 17.0.0, SVG Export Plug-In . SVG Version: 6.00 Build 0)  -->
<!DOCTYPE svg PUBLIC "-//W3C//DTD SVG 1.1//EN" "http://www.w3.org/Graphics/SVG/1.1/DTD/svg11.dtd">
<svg version="1.1" id="Layer_1" xmlns="http://www.w3.org/2000/svg" xmlns:xlink="http://www.w3.org/1999/xlink" x="0px" y="0px"
	 width="25.512px" height="28.648px" viewBox="0 0 25.512 28.648" enable-background="new 0 0 25.512 28.648" xml:space="preserve">
<path fill="#484747" d="M9.823-2.248v-0.974c0-0.266-0.215-0.481-0.481-0.481c-0.266,0-0.481,0.215-0.481,0.481v0.974
	C2.541-1.994-2.592,3.218-2.684,9.593c-0.001,0.129,0.066,0.296,0.156,0.388c0.211,0.212,0.594,0.203,0.793-0.021
	c0.666-0.745,1.523-1.156,2.419-1.156c0.944,0,1.838,0.451,2.516,1.27c0.092,0.11,0.227,0.174,0.37,0.174s0.279-0.064,0.37-0.174
	c0.678-0.819,1.572-1.27,2.516-1.27c0.894,0,1.742,0.409,2.405,1.148v12.321c0,0.796-0.648,1.443-1.443,1.443
	s-1.443-0.648-1.443-1.443c0-0.266-0.215-0.481-0.481-0.481s-0.481,0.215-0.481,0.481c0,1.326,1.079,2.405,2.405,2.405
	s2.405-1.079,2.405-2.405V9.952c0.664-0.74,1.511-1.148,2.405-1.148c0.944,0,1.838,0.451,2.516,1.27
	c0.092,0.11,0.227,0.174,0.37,0.174s0.279-0.064,0.37-0.174c0.678-0.819,1.572-1.27,2.516-1.27c0.894,0,1.753,0.411,2.417,1.154
	c0.2,0.225,0.583,0.234,0.793,0.021c0.09-0.092,0.158-0.259,0.156-0.388C21.276,3.218,16.142-1.994,9.823-2.248z"/>
</svg>
