<?xml version="1.0" encoding="utf-8"?>
<!-- Generator: Adobe Illustrator 17.0.0, SVG Export Plug-In . SVG Version: 6.00 Build 0)  -->
<!DOCTYPE svg PUBLIC "-//W3C//DTD SVG 1.1//EN" "http://www.w3.org/Graphics/SVG/1.1/DTD/svg11.dtd">
<svg version="1.1" id="Layer_1" xmlns="http://www.w3.org/2000/svg" xmlns:xlink="http://www.w3.org/1999/xlink" x="0px" y="0px"
	 width="25.512px" height="28.648px" viewBox="0 0 25.512 28.648" enable-background="new 0 0 25.512 28.648" xml:space="preserve">
<path fill="#FFFFFF" d="M24.476,13.27c0.009-0.032,0.018-0.063,0.02-0.097c0-0.007,0.004-0.013,0.004-0.02
	c0-6.318-5.015-11.484-11.274-11.732V0.47c0-0.26-0.211-0.47-0.47-0.47c-0.259,0-0.47,0.21-0.47,0.47v0.951
	C6.028,1.669,1.013,6.834,1.013,13.152c0,0.008,0.004,0.014,0.004,0.021c0.001,0.033,0.011,0.065,0.02,0.097
	c0.008,0.028,0.012,0.055,0.024,0.081c0.012,0.025,0.03,0.045,0.046,0.068c0.02,0.028,0.038,0.055,0.063,0.079
	c0.005,0.005,0.008,0.012,0.013,0.016c0.017,0.014,0.038,0.019,0.055,0.03c0.028,0.017,0.054,0.035,0.086,0.046
	c0.033,0.012,0.066,0.016,0.1,0.02c0.02,0.002,0.038,0.011,0.059,0.011c0.007,0,0.013-0.004,0.02-0.004
	c0.036-0.001,0.069-0.011,0.103-0.02c0.025-0.007,0.051-0.011,0.074-0.022c0.027-0.012,0.049-0.032,0.073-0.049
	c0.026-0.019,0.052-0.036,0.074-0.06c0.005-0.005,0.012-0.008,0.017-0.014c0.663-0.799,1.535-1.24,2.457-1.24s1.794,0.44,2.457,1.24
	c0.009,0.011,0.023,0.015,0.032,0.025c0.011,0.011,0.017,0.026,0.03,0.037c0.019,0.015,0.041,0.021,0.061,0.033
	c0.024,0.015,0.046,0.029,0.071,0.039c0.039,0.015,0.077,0.021,0.117,0.025c0.017,0.002,0.033,0.011,0.05,0.011
	c0.008,0,0.015-0.003,0.022-0.004c0.024-0.001,0.046-0.007,0.07-0.012c0.032-0.006,0.063-0.014,0.094-0.028
	c0.024-0.01,0.045-0.024,0.066-0.038c0.015-0.01,0.033-0.015,0.047-0.027c0.011-0.01,0.016-0.023,0.027-0.033
	c0.011-0.011,0.025-0.016,0.035-0.029c0.663-0.799,1.536-1.239,2.457-1.239c0.874,0,1.701,0.399,2.349,1.121v12.501
	c0,0.777-0.632,1.409-1.409,1.409c-0.777,0-1.409-0.632-1.409-1.409c0-0.26-0.211-0.47-0.47-0.47s-0.47,0.21-0.47,0.47
	c0,1.295,1.053,2.349,2.349,2.349s2.349-1.053,2.349-2.349V13.334c0.648-0.722,1.475-1.121,2.349-1.121
	c0.922,0,1.794,0.44,2.457,1.24c0.009,0.011,0.023,0.015,0.032,0.025c0.011,0.011,0.017,0.026,0.03,0.037
	c0.019,0.015,0.041,0.02,0.061,0.033c0.024,0.015,0.046,0.029,0.072,0.039c0.038,0.015,0.076,0.021,0.117,0.025
	c0.017,0.002,0.033,0.011,0.05,0.011c0.008,0,0.015-0.003,0.022-0.004c0.024-0.001,0.046-0.007,0.07-0.012
	c0.032-0.006,0.063-0.014,0.094-0.027c0.024-0.01,0.045-0.024,0.067-0.038c0.015-0.01,0.033-0.015,0.047-0.027
	c0.011-0.01,0.016-0.023,0.026-0.033c0.011-0.011,0.025-0.016,0.036-0.029c0.663-0.799,1.535-1.24,2.457-1.24s1.794,0.44,2.457,1.24
	c0.005,0.005,0.011,0.007,0.016,0.013c0.033,0.036,0.072,0.063,0.115,0.088c0.015,0.009,0.026,0.021,0.041,0.028
	c0.058,0.025,0.121,0.041,0.189,0.041l0,0l0,0c0.058,0,0.115-0.013,0.169-0.034c0.021-0.009,0.039-0.022,0.058-0.033
	c0.024-0.014,0.05-0.023,0.071-0.041c0.005-0.005,0.008-0.011,0.013-0.016c0.025-0.023,0.043-0.05,0.063-0.079
	c0.016-0.023,0.034-0.044,0.046-0.068C24.464,13.326,24.469,13.298,24.476,13.27z M21.211,11.274c-1.042,0-2.026,0.421-2.818,1.19
	c-0.793-0.77-1.777-1.19-2.818-1.19s-2.026,0.421-2.818,1.19c-0.793-0.77-1.777-1.19-2.818-1.19s-2.026,0.421-2.818,1.19
	c-0.793-0.77-1.777-1.19-2.818-1.19c-0.822,0-1.605,0.266-2.29,0.754c0.563-5.431,5.167-9.679,10.744-9.679
	s10.181,4.248,10.745,9.679C22.818,11.539,22.034,11.274,21.211,11.274z"/>
</svg>
