<?xml version="1.0" encoding="utf-8"?>
<!-- Generator: Adobe Illustrator 17.0.0, SVG Export Plug-In . SVG Version: 6.00 Build 0)  -->
<!DOCTYPE svg PUBLIC "-//W3C//DTD SVG 1.1//EN" "http://www.w3.org/Graphics/SVG/1.1/DTD/svg11.dtd">
<svg version="1.1" id="Layer_1" xmlns="http://www.w3.org/2000/svg" xmlns:xlink="http://www.w3.org/1999/xlink" x="0px" y="0px"
	 width="59.528px" height="59.528px" viewBox="3.036 -5.948 59.528 59.528" enable-background="new 3.036 -5.948 59.528 59.528"
	 xml:space="preserve">
<path fill="none" stroke="#FFFFFF" stroke-width="3" stroke-linecap="round" stroke-linejoin="round" stroke-miterlimit="10" d="
	M52.701,19.455c4.829,1.084,8.438,5.398,8.438,10.553c0,5.974-4.843,10.816-10.816,10.816H15.354
	c-5.974,0-10.817-4.25-10.817-10.223c0-5.11,3.543-9.392,8.306-10.524c-0.294-0.872-0.453-1.806-0.453-2.777
	c0-4.809,3.898-8.707,8.707-8.707c2.387,0,4.549,0.96,6.122,2.516h0.001c2.119-4.67,6.822-7.918,12.285-7.918
	c7.446,0,13.483,6.036,13.483,13.483c0,0.954-0.288,2.784-0.288,2.784L52.701,19.455L52.701,19.455z"/>
</svg>
