<?xml version="1.0" encoding="utf-8"?>
<!-- Generator: Adobe Illustrator 17.0.0, SVG Export Plug-In . SVG Version: 6.00 Build 0)  -->
<!DOCTYPE svg PUBLIC "-//W3C//DTD SVG 1.1//EN" "http://www.w3.org/Graphics/SVG/1.1/DTD/svg11.dtd">
<svg version="1.1" id="Layer_1" xmlns="http://www.w3.org/2000/svg" xmlns:xlink="http://www.w3.org/1999/xlink" x="0px" y="0px"
	 width="59.528px" height="59.528px" viewBox="3.036 4.916 59.528 59.528" enable-background="new 3.036 4.916 59.528 59.528"
	 xml:space="preserve">
<path fill="none" stroke="#FFFFFF" stroke-width="3" stroke-linecap="round" stroke-linejoin="round" stroke-miterlimit="10" d="
	M52.204,22.327c4.689,1.053,8.193,5.241,8.193,10.247c0,5.801-4.703,10.503-10.503,10.503H15.941
	c-5.801,0-10.503-4.126-10.503-9.927c0-4.962,3.44-9.12,8.065-10.218c-0.285-0.846-0.44-1.754-0.44-2.696
	c0-4.669,3.785-8.454,8.454-8.454c2.318,0,4.417,0.932,5.945,2.443l0.001-0.001c2.058-4.534,6.624-7.689,11.929-7.689
	c7.23,0,13.092,5.862,13.092,13.092c0,0.927-0.28,2.703-0.28,2.703V22.327z"/>
<line fill="none" stroke="#FFFFFF" stroke-width="3" stroke-linecap="round" stroke-linejoin="round" stroke-miterlimit="10" x1="17.452" y1="50.808" x2="22.392" y2="55.748"/>
<line fill="none" stroke="#FFFFFF" stroke-width="3" stroke-linecap="round" stroke-linejoin="round" stroke-miterlimit="10" x1="17.452" y1="55.862" x2="22.449" y2="50.865"/>
<line fill="none" stroke="#FFFFFF" stroke-width="3" stroke-linecap="round" stroke-linejoin="round" stroke-miterlimit="10" x1="42.766" y1="50.751" x2="47.706" y2="55.691"/>
<line fill="none" stroke="#FFFFFF" stroke-width="3" stroke-linecap="round" stroke-linejoin="round" stroke-miterlimit="10" x1="42.766" y1="55.805" x2="47.763" y2="50.808"/>
<line fill="none" stroke="#FFFFFF" stroke-width="3" stroke-linecap="round" stroke-linejoin="round" stroke-miterlimit="10" x1="29.824" y1="56.05" x2="34.765" y2="60.99"/>
<line fill="none" stroke="#FFFFFF" stroke-width="3" stroke-linecap="round" stroke-linejoin="round" stroke-miterlimit="10" x1="29.824" y1="61.103" x2="34.821" y2="56.106"/>
</svg>
