<?xml version="1.0" encoding="utf-8"?>
<!-- Generator: Adobe Illustrator 17.0.0, SVG Export Plug-In . SVG Version: 6.00 Build 0)  -->
<!DOCTYPE svg PUBLIC "-//W3C//DTD SVG 1.1//EN" "http://www.w3.org/Graphics/SVG/1.1/DTD/svg11.dtd">
<svg version="1.1" id="Layer_1" xmlns="http://www.w3.org/2000/svg" xmlns:xlink="http://www.w3.org/1999/xlink" x="0px" y="0px"
	 width="59.528px" height="59.528px" viewBox="3.036 -5.948 59.528 59.528" enable-background="new 3.036 -5.948 59.528 59.528"
	 xml:space="preserve">
<path fill="none" stroke="#FFFFFF" stroke-width="3" stroke-linecap="round" stroke-linejoin="round" stroke-miterlimit="10" d="
	M47.003,21.448c4.193,0.941,7.326,4.687,7.326,9.164c0,5.187-4.205,9.392-9.392,9.392H14.574c-5.187,0-9.392-3.69-9.392-8.877
	c0-4.437,3.076-8.155,7.212-9.138c-0.255-0.757-0.393-1.568-0.393-2.412c0-4.176,3.385-7.561,7.561-7.561
	c2.072,0,3.95,0.835,5.315,2.185h0.001c1.84-4.054,5.924-6.875,10.666-6.875c6.466,0,11.708,5.241,11.708,11.707
	c0,0.829-0.25,2.417-0.25,2.417L47.003,21.448L47.003,21.448z"/>
<path fill="none" stroke="#FFFFFF" stroke-width="3" stroke-linecap="round" stroke-linejoin="round" stroke-miterlimit="10" d="
	M39.335,7.953c1.704-1.913,4.04-3.289,6.76-3.77c6.424-1.136,12.552,3.15,13.688,9.573c0.94,5.311-1.826,10.419-6.442,12.673"/>
</svg>
