<?xml version="1.0" encoding="utf-8"?>
<!-- Generator: Adobe Illustrator 17.0.0, SVG Export Plug-In . SVG Version: 6.00 Build 0)  -->
<!DOCTYPE svg PUBLIC "-//W3C//DTD SVG 1.1//EN" "http://www.w3.org/Graphics/SVG/1.1/DTD/svg11.dtd">
<svg version="1.1" id="Layer_1" xmlns="http://www.w3.org/2000/svg" xmlns:xlink="http://www.w3.org/1999/xlink" x="0px" y="0px"
	 width="59.528px" height="59.528px" viewBox="3.036 4.916 59.528 59.528" enable-background="new 3.036 4.916 59.528 59.528"
	 xml:space="preserve">
<path fill="none" stroke="#FFFFFF" stroke-width="3" stroke-linecap="round" stroke-linejoin="round" stroke-miterlimit="10" d="
	M52.289,23.977c4.69,1.052,8.195,5.241,8.195,10.248c0,5.801-4.704,10.504-10.504,10.504H16.023c-5.801,0-10.504-4.127-10.504-9.928
	c0-4.962,3.441-9.12,8.066-10.219c-0.285-0.846-0.44-1.754-0.44-2.697c0-4.67,3.785-8.456,8.457-8.456
	c2.317,0,4.418,0.932,5.945,2.443l0,0c2.058-4.535,6.625-7.69,11.93-7.69c7.231,0,13.094,5.862,13.094,13.093
	c0,0.927-0.281,2.704-0.281,2.704L52.289,23.977L52.289,23.977z"/>
<circle fill="#FFFFFF" stroke="#FFFFFF" stroke-linecap="round" stroke-linejoin="round" stroke-miterlimit="10" cx="20.63" cy="52.044" r="1.79"/>
<circle fill="#FFFFFF" stroke="#FFFFFF" stroke-linecap="round" stroke-linejoin="round" stroke-miterlimit="10" cx="33.581" cy="52.044" r="1.79"/>
<circle fill="#FFFFFF" stroke="#FFFFFF" stroke-linecap="round" stroke-linejoin="round" stroke-miterlimit="10" cx="46.532" cy="52.044" r="1.79"/>
<circle fill="#FFFFFF" stroke="#FFFFFF" stroke-linecap="round" stroke-linejoin="round" stroke-miterlimit="10" cx="27.2" cy="58.614" r="1.79"/>
<circle fill="#FFFFFF" stroke="#FFFFFF" stroke-linecap="round" stroke-linejoin="round" stroke-miterlimit="10" cx="40.152" cy="58.614" r="1.79"/>
</svg>
